<?xml version="1.0" encoding="UTF-8"?>
<svg width="38px" height="20px" viewBox="0 0 38 20" version="1.1" xmlns="http://www.w3.org/2000/svg" xmlns:xlink="http://www.w3.org/1999/xlink">
    <title>sun copy</title>
    <g id="Symbols" stroke="none" stroke-width="1" fill="none" fill-rule="evenodd">
        <g id="Logo/arar" transform="translate(0.000000, -9.000000)" fill="#A6752F" fill-rule="nonzero">
            <g id="sun-copy" transform="translate(0.000000, 9.462121)">
                <path d="M23.5556351,17.2816134 C21.900199,16.8148351 20.3774591,16.2786616 18.9047391,15.7601136 C14.4057347,14.1760305 9.75348462,12.5378788 0.597371562,12.5378788 C0.267383511,12.5378788 0,12.8238039 0,13.1764846 C0,13.5291654 0.267383511,13.8150905 0.597371562,13.8150905 C9.56176818,13.8150905 14.1213858,15.4205456 18.5310234,16.9732093 C19.4062126,17.2813579 20.2999601,17.5953817 21.2303464,17.8989323 C21.8833133,18.1119713 22.5538032,18.3199865 23.2508163,18.5165919 C23.3019513,18.5309818 23.353166,18.5378788 23.4035841,18.5378788 C23.6681799,18.5378788 23.9100756,18.3484257 23.9808044,18.0619897 C23.9942651,18.0074953 24,17.9528307 24,17.8989323 C24,17.6159874 23.8236558,17.3572243 23.5556351,17.2816134 Z" id="Path"></path>
                <path d="M30.0031706,16.2617099 C29.9683412,16.7111972 30.2244647,17.1064917 30.5746275,17.1499105 C32.6790027,17.4109622 34.8995041,17.5378788 37.3628769,17.5378788 C37.7148237,17.5378788 38,17.1761988 38,16.729836 C38,16.2834732 37.7148237,15.9217933 37.3628769,15.9217933 C34.9412994,15.9217933 32.7614039,15.7974624 30.6987391,15.5414745 C30.3484913,15.5001027 30.0395291,15.8204108 30.0031706,16.2617099 Z" id="Path"></path>
                <path d="M18.6877796,13.5751343 C21.4816651,14.6829843 24.3706535,15.8285492 28.3096282,16.529949 C28.3395084,16.5353645 28.3692281,16.5378788 28.3985461,16.5378788 C28.6922081,16.5378788 28.9494033,16.2789034 28.9936614,15.9186781 C28.9939024,15.9169374 28.9939024,15.9151967 28.9940631,15.9133593 C29.0400883,15.5190939 28.8135766,15.1533564 28.4858575,15.0950434 C24.6491344,14.4118241 21.8101875,13.2860837 19.0645762,12.1972845 C14.5275142,10.3981887 9.8359102,8.53787879 0.6024248,8.53787879 C0.269645341,8.53787879 0,8.86261345 0,9.26316467 C0,9.66371589 0.269645341,9.98845055 0.6024248,9.98845055 C9.64281297,9.98845055 14.241001,11.8118193 18.6877796,13.5751343 Z" id="Path"></path>
                <path d="M9.68800786,4.54550721 C9.35934752,4.4880512 9.05424879,4.76132934 9.00616389,5.1571481 C9.00592346,5.15898283 9.00592346,5.16072099 9.00576318,5.16255572 C8.96048322,5.55625006 9.18688299,5.92097498 9.51378021,5.97872067 C13.3755592,6.66008129 16.2240289,7.79046781 18.9788132,8.88377349 C23.5055263,10.6802634 28.1864316,12.5378788 37.3989387,12.5378788 C37.7309649,12.5378788 38,12.213711 38,11.8136434 C38,11.4135758 37.7309649,11.0894081 37.3989387,11.0894081 C28.3792521,11.0894081 23.7915513,9.268777 19.3548371,7.50801603 C16.5514871,6.39549397 13.6526084,5.24492542 9.68800786,4.54550721 Z" id="Path"></path>
                <path d="M7.29340427,5.53408598 C7.31429809,5.5365784 7.33510593,5.53787879 7.35582778,5.53787879 C7.68273435,5.53787879 7.96217842,5.22589353 7.99639957,4.80825157 C7.99657154,4.80640935 7.99691547,4.80456713 7.99700145,4.80272491 C8.03105064,4.35593254 7.77121064,3.95898845 7.41670359,3.91596721 C5.3146823,3.66152421 3.09950765,3.53787879 0.644870933,3.53787879 C0.28864423,3.53787879 0,3.90177129 0,4.35062261 C0,4.79947393 0.28864423,5.16336643 0.644870933,5.16336643 C3.05789198,5.16336643 5.23265472,5.28462781 7.29340427,5.53408598 Z" id="Path"></path>
                <path d="M18.8103234,5.17156461 C23.3771957,6.8265223 28.0995447,8.53787879 37.393617,8.53787879 C37.728583,8.53787879 38,8.23924984 38,7.87070062 C38,7.5021514 37.728583,7.20352245 37.393617,7.20352245 C29.4833915,7.20352245 24.9520128,5.93606184 20.9623362,4.53916867 C24.9519319,3.14156384 29.4807234,1.87232408 37.3935362,1.87223513 C37.7285021,1.87223513 38,1.57360618 38,1.20505696 C38,0.836507737 37.728583,0.537878788 37.393617,0.537878788 C28.2278553,0.537878788 23.512217,2.20351133 19.0038809,3.83685245 C14.4939277,2.2031555 9.77448936,0.537878788 0.606382979,0.537878788 C0.271417021,0.537878788 0,0.836507737 0,1.20505696 C0,1.57351722 0.271417021,1.87223513 0.606382979,1.87223513 C9.70600851,1.87223513 14.3344085,3.54952105 18.8103234,5.17156461 Z" id="Path"></path>
            </g>
        </g>
    </g>
</svg>