<?xml version="1.0" encoding="UTF-8"?>
<svg width="38px" height="38px" viewBox="0 0 38 38" version="1.1" xmlns="http://www.w3.org/2000/svg" xmlns:xlink="http://www.w3.org/1999/xlink">
    <title>Shape</title>
    <g id="Symbols" stroke="none" stroke-width="1" fill="none" fill-rule="evenodd">
        <g id="Logo/cosechar" fill="#D5B100" fill-rule="nonzero">
            <path d="M38,2.51081786 L38,1.11328016 C38,0.498452638 37.5015098,0 36.8866816,0 L35.4890684,0 C32.0505879,0 29.2720605,1.83223649 27.7164355,4.22586306 C27.309123,3.33278971 26.741127,2.5105952 26.0263262,1.796092 C25.2504434,1.01969041 24.5569434,0.326116869 24.5569434,0.326116869 C24.1222441,-0.108656144 23.4173145,-0.108656144 22.982541,0.326116869 L21.5130098,1.79564668 C19.9435059,3.36448109 19.0791543,5.45128765 19.0791543,7.67176204 C19.0791543,8.24354273 19.1368965,8.80634296 19.2488184,9.35385415 C19.127916,9.21610428 19.0024863,9.0814716 18.8716387,8.95069829 L17.4023301,7.48079738 C16.9675566,7.04595015 16.2622559,7.04639546 15.8278535,7.48079738 L14.3583223,8.9503272 C12.7888184,10.5191616 11.9244668,12.6060424 11.9244668,14.8264426 C11.9244668,15.3982232 11.982209,15.9610977 12.0941309,16.5086089 C11.9732285,16.370859 11.8477988,16.2362263 11.7169512,16.105453 L10.2476426,14.6354779 C10.0388652,14.4267008 9.7557207,14.309361 9.46047852,14.309361 C9.16523633,14.309361 8.8820918,14.4267008 8.67331445,14.6354779 L7.20370898,16.1050077 C3.99166992,19.3156335 3.92361133,24.5784799 7.20356055,27.85709 L7.88607617,28.5396049 L0.326080078,36.0995194 C-0.108693359,36.5342924 -0.108693359,37.2391472 0.326080078,37.6739202 C0.760779297,38.1086933 1.46570898,38.1086933 1.90048242,37.6739202 L9.46025586,30.1141542 L10.1425488,30.7966691 C11.712498,32.3659489 13.7993066,33.2302254 16.0182988,33.2302254 C16.9378691,33.2302254 19.6015801,33.0888388 21.8948652,30.7965207 L23.3646191,29.3267682 C23.5733965,29.1179911 23.6907363,28.8348468 23.6907363,28.5396049 C23.6907363,28.2442888 23.5733965,27.9611446 23.3646191,27.7523674 L21.8947168,26.2825407 C21.7640918,26.1519159 21.6295332,26.026709 21.4919316,25.9059552 C22.0391465,26.0178027 22.6016504,26.0755448 23.1729863,26.0755448 L23.1735801,26.0755448 C25.3926465,26.0755448 27.4793809,25.2112683 29.0495527,23.641766 L30.5192324,22.1720877 C30.9540059,21.7373147 30.9536348,21.0320146 30.5192324,20.5976127 L29.0494043,19.127786 C28.9187793,18.9971611 28.7841465,18.8719542 28.6466191,18.7512004 C29.193834,18.863048 29.7563379,18.9207901 30.3276738,18.9207901 L30.3282676,18.9207901 C32.547334,18.9207901 34.6341426,18.0565136 36.2042402,16.4870855 L37.6739199,15.0174072 C38.1086934,14.5827084 38.1086934,13.8777794 37.6739199,13.4430064 L36.2040176,11.9731055 C35.4889199,11.2583054 34.6664277,10.6903841 33.7732051,10.2832204 C36.1649043,8.72871023 38,5.95449028 38,2.51081786 L38,2.51081786 Z M23.8076493,3.68457145 L24.4996325,3 C24.7096962,3.20788813 24.9464788,3.44228349 25.19139,3.68479483 C27.6006869,6.06724347 27.6052028,9.92843794 25.1909384,12.3158008 L24.4995572,13 L23.8074987,12.3152796 C21.4193512,9.95382828 21.3756977,6.08950656 23.8076493,3.68457145 L23.8076493,3.68457145 Z M21.0857376,14 C21.1804328,14.1077764 21.278618,14.2132263 21.3809912,14.3155354 L23.6842718,16.6191473 C23.7867031,16.7215146 23.8921591,16.8196941 24,16.9143256 C22.6737436,16.6432269 21.5825384,16.8452859 21,17 C21.1551303,16.4158669 21.3565612,15.3248997 21.0857376,14 Z M15.8076504,10.6845766 L16.4995581,10 L17.1913906,10.6847255 C19.6006867,13.0671919 19.6052026,16.9284151 17.190939,19.3157957 L16.4995581,20 L15.8074999,19.3152745 C13.41988,16.9542524 13.3751728,13.0900508 15.8076504,10.6845766 L15.8076504,10.6845766 Z M14.0857924,21 C14.1804839,21.1078304 14.2786653,21.213218 14.3810927,21.3155813 L16.684284,23.6191621 C16.7867114,23.7215254 16.8921633,23.8197011 17,23.9143289 C15.673795,23.6432407 14.5826321,23.8452919 14,24 C14.1551824,23.4158896 14.3566637,22.3249646 14.0857924,21 L14.0857924,21 Z M10.1909666,26.3158008 L9.49959618,27 L8.80747317,26.3152796 C6.42011543,23.954424 6.37495734,20.0902511 8.8076237,17.6845715 L9.49959618,17 L10.1914181,17.6847204 C12.6006776,20.0670946 12.6051934,23.9283635 10.1909666,26.3158008 Z M20.3154,29.1928195 C19.1623384,30.3582349 17.6297874,31 16.0001489,31 C15.3182292,31 13.3656114,30.892048 11.6846745,29.1932712 L11,28.5006918 L11.6842278,27.8086394 C14.0683037,25.3990654 17.9276014,25.3952261 20.3153255,27.8084888 L21,28.5007671 L20.3154,29.1928195 Z M27.3154693,22.1922717 C24.9485001,24.5840243 21.0876101,24.6209051 18.6846051,22.1927233 L18,21.5002688 L18.6841584,20.8083413 C21.0683265,18.3991267 24.9275041,18.3953634 27.3153204,20.8081907 L28,21.5003441 L27.3154693,22.1922717 Z M34.3153898,12.8082164 L35,13.5003115 L34.3155387,14.1922561 C31.9484029,16.5842935 28.0872608,16.6206483 25.6846102,14.1927078 C25.4422604,13.9474825 25.2078028,13.7103863 25,13.500161 L25.6841635,12.8082917 C28.0684238,10.3990178 31.9277046,10.3954802 34.3153898,12.8082164 L34.3153898,12.8082164 Z M28.3103123,10 L28,10 L28,9.68903819 C28,5.43454477 31.4439629,2 35.6890382,2 L36,2 L36,2.31096181 C36,6.58989374 32.5246161,10 28.3103123,10 L28.3103123,10 Z" id="Shape"></path>
        </g>
    </g>
</svg>