<?xml version="1.0" encoding="UTF-8"?>
<svg width="38px" height="38px" viewBox="0 0 38 38" version="1.1" xmlns="http://www.w3.org/2000/svg" xmlns:xlink="http://www.w3.org/1999/xlink">
    <title>Shape</title>
    <g id="Symbols" stroke="none" stroke-width="1" fill="none" fill-rule="evenodd">
        <g id="Logo/fumigar" fill="#D1001E" fill-rule="nonzero">
            <path d="M37.3843415,22.3831265 L32.9313105,20.1565553 C32.7767135,20.0792933 32.606308,20.0390666 32.4334533,20.0390666 L29.0713588,20.0390666 C29.0376637,19.1808718 28.9653007,18.3347005 28.855309,17.5064903 L32.9313847,15.4684354 C33.3085627,15.2798448 33.5468038,14.8943511 33.5468038,14.4726386 L33.5468038,7.79299919 C33.5468038,7.17816866 33.0483529,6.67971359 32.4335275,6.67971359 C31.8187021,6.67971359 31.3202512,7.17816866 31.3202512,7.79299919 L31.3202512,13.7845538 L28.446514,15.2214345 C27.4746238,10.9421873 25.0250448,5.99021871 20.874157,4.73339349 C22.1876746,3.17620381 24.1747986,2.2265712 26.2793361,2.2265712 L32.4333049,2.2265712 C33.0481302,2.2265712 33.5465812,1.72811613 33.5465812,1.1132856 C33.5465812,0.498455072 33.0481302,0 32.4333049,0 L26.2793361,0 C23.4234113,0 20.7279467,1.33423568 18.9999192,3.5082598 C17.2718917,1.33416146 14.5764271,0 11.7205023,0 L5.56660777,0 C4.95178238,0 4.45333147,0.498455072 4.45333147,1.1132856 C4.45333147,1.72811613 4.95178238,2.2265712 5.56660777,2.2265712 L11.7205765,2.2265712 C13.8251141,2.2265712 15.812238,3.17620381 17.1257557,4.73339349 C12.9705632,5.99162887 10.5250662,10.9435974 9.55362132,15.2214345 L6.67980986,13.7845538 L6.67980986,7.79299919 C6.67980986,7.17816866 6.18135895,6.67971359 5.56653356,6.67971359 C4.95170816,6.67971359 4.45325725,7.17816866 4.45325725,7.79299919 L4.45325725,14.4726386 C4.45325725,14.8943511 4.69149838,15.2797706 5.06867639,15.4684354 L9.14475204,17.5064903 C9.03476034,18.3347005 8.96239738,19.1808718 8.928628,20.0390666 L5.56653356,20.0390666 C5.39367885,20.0390666 5.22327336,20.0792933 5.06867639,20.1565553 L0.615645388,22.3831265 C0.0656868933,22.658108 -0.157191023,23.3268216 0.117788224,23.8767847 C0.39284169,24.426822 1.06154966,24.6495533 1.61143393,24.374646 L5.8294152,22.2655635 L8.92870222,22.2655635 C8.99134256,23.8678784 9.18876356,25.4307087 9.51153947,26.9155348 L5.06882483,29.1369107 C4.69164682,29.3255013 4.45340569,29.710995 4.45340569,30.1327075 L4.45340569,36.886566 C4.45340569,37.5013965 4.9518566,38 5.56668199,38 C6.18150739,38 6.6799583,37.5013965 6.6799583,36.886566 L6.6799583,30.8207923 L10.0988298,29.1113051 C11.4864174,33.4359001 14.5124509,37.9963633 18.9952434,38 C18.9968762,38 18.9984348,38 19.0000676,38 C19.0017004,38 19.003259,38 19.0048918,38 C23.509282,37.996289 26.523292,33.4060641 27.9013055,29.1113051 L31.320177,30.8207923 L31.320177,36.886566 C31.320177,37.5013965 31.8186279,38 32.4334533,38 C33.0482787,38 33.5467296,37.5013965 33.5467296,36.886566 L33.5467296,30.1327075 C33.5467296,29.710995 33.3084885,29.3255755 32.9313105,29.1369107 L28.4885958,26.9155348 C28.8113717,25.4307087 29.0088669,23.8678042 29.0714331,22.2655635 L32.1706459,22.2655635 L32.1706459,22.2655635 L36.3886271,24.374646 C36.9386598,24.6497018 37.6073678,24.4265993 37.8822728,23.8767847 C38.1571779,23.3268216 37.9342257,22.658108 37.3843415,22.3831265 Z M18,36 C14.2705744,34.9604059 11,28.8196914 11,21.1494179 C11,18.1674905 11.5122364,15.3574699 12.381169,13 C13.9598787,14.3048456 15.9319773,15.1415196 18,15.3705001 L18,36 Z M18.5,13 C16.4390166,13 14.4335814,12.1153457 13,10.6035623 C14.416186,7.780042 16.3744053,6 18.5,6 C20.6255947,6 22.583814,7.780042 24,10.6035623 C22.5664186,12.1153457 20.5609834,13 18.5,13 Z M20,36 L20,15.3705001 C22.0680227,15.1415196 24.0401982,14.3047694 25.618831,13 C26.4877636,15.3574699 27,18.1675667 27,21.1494179 C27,28.719641 23.7814262,34.9458517 20,36 Z" id="Shape"></path>
        </g>
    </g>
</svg>