<?xml version="1.0" encoding="UTF-8"?>
<svg width="234px" height="113px" viewBox="0 0 234 113" version="1.1" xmlns="http://www.w3.org/2000/svg" xmlns:xlink="http://www.w3.org/1999/xlink">
    <title>Group 3</title>
    <g id="-" stroke="none" stroke-width="1" fill="none" fill-rule="evenodd">
        <g id="Intro" transform="translate(-85.000000, -283.000000)" fill-rule="nonzero">
            <g id="Group-3" transform="translate(85.000000, 283.000000)">
                <path d="M37.6317169,47.1428571 C38.5674967,47.1428571 39.4252949,46.7912088 40.2051114,46.0879121 C40.9849279,45.3846154 41.3748362,44.4395604 41.3748362,43.2527473 C41.3748362,42.7692308 41.2634338,42.2417582 41.0406291,41.6703297 L41.0406291,41.6703297 L24.5976409,3.03296703 C24.2857143,2.1978022 23.7844037,1.54945055 23.093709,1.08791209 C22.4030144,0.626373626 21.6566186,0.395604396 20.8545216,0.395604396 C20.0078637,0.307692308 19.2169069,0.505494505 18.4816514,0.989010989 C17.7463958,1.47252747 17.2005242,2.15384615 16.8440367,3.03296703 L16.8440367,3.03296703 L0.200524246,42.4615385 C0.0668414155,42.9010989 0,43.3186813 0,43.7142857 C0,44.6813187 0.289646134,45.4945055 0.868938401,46.1538462 C1.44823067,46.8131868 2.33944954,47.1428571 3.54259502,47.1428571 C4.30013106,47.1428571 5.00196592,46.9120879 5.64809961,46.4505495 C6.29423329,45.989011 6.77326343,45.3406593 7.08519004,44.5054945 L7.08519004,44.5054945 L10.5509174,36.4615385 L30.4830275,36.4615385 L33.9554391,44.4395604 C34.2406291,45.1076923 34.6185059,45.6632967 35.0890695,46.1063736 L35.4593709,46.4175824 C36.1055046,46.9010989 36.8296199,47.1428571 37.6317169,47.1428571 Z M27.1844037,28.8791209 L13.8194626,28.8791209 L20.4735256,13.4472527 L27.1844037,28.8791209 Z M80.6775885,60 C81.9252949,60 83.3178244,59.8021978 84.8551769,59.4065934 C86.3925295,59.010989 87.8741809,58.4615385 89.3001311,57.7582418 C90.7260813,57.0549451 91.895806,56.2527473 92.8093054,55.3516484 C93.7228047,54.4505495 94.1795544,53.4945055 94.1795544,52.4835165 C94.1795544,51.4725275 93.7785059,50.5824176 92.9764089,49.8131868 C92.1743119,49.043956 91.3053735,48.6593407 90.3695937,48.6593407 C89.6566186,48.6593407 88.9993447,48.8901099 88.397772,49.3516484 C87.7961992,49.8131868 87.1166448,50.3296703 86.3591088,50.9010989 C85.7352556,51.3846154 85.0111402,51.8241758 84.1867628,52.2197802 C83.3623853,52.6153846 82.3486239,52.8131868 81.1454784,52.8131868 C79.6749672,52.8131868 78.3715596,52.5824176 77.2352556,52.1208791 C76.0989515,51.6593407 74.9960682,51.1428571 73.9266055,50.5714286 C72.8571429,50 71.731979,49.4835165 70.551114,49.021978 C69.9606815,48.7912088 69.322903,48.6181319 68.6377785,48.5027473 L68.2417431,48.4516484 L72.2555701,46.9813187 L72.6347507,46.9027269 C73.6390224,46.6748067 74.6148245,46.3785104 75.5621572,46.013838 L76.5,45.6263736 C79.285059,44.3956044 81.6913499,42.6923077 83.7188729,40.5164835 C85.7463958,38.3406593 87.3171691,35.8241758 88.4311927,32.967033 C89.5452163,30.1098901 90.102228,27.032967 90.102228,23.7362637 C90.102228,20.4395604 89.5452163,17.3626374 88.4311927,14.5054945 C87.3171691,11.6483516 85.7463958,9.13186813 83.7188729,6.95604396 C81.6913499,4.78021978 79.285059,3.07692308 76.5,1.84615385 C73.714941,0.615384615 70.6736566,0 67.3761468,0 C64.078637,0 61.0484928,0.615384615 58.2857143,1.84615385 C55.5229358,3.07692308 53.1277851,4.78021978 51.1002621,6.95604396 C49.0727392,9.13186813 47.5019659,11.6483516 46.3879423,14.5054945 C45.2739187,17.3626374 44.7169069,20.4395604 44.7169069,23.7362637 C44.7169069,27.032967 45.2739187,30.1098901 46.3879423,32.967033 C47.5019659,35.8241758 49.0727392,38.3406593 51.1002621,40.5164835 C53.1277851,42.6923077 55.5229358,44.3956044 58.2857143,45.6263736 C59.5136158,46.1733822 60.7943304,46.5988333 62.1278579,46.9027269 L62.3697248,46.9549451 L55.7457405,49.3846154 C54.3278923,49.9040959 53.5545205,50.8958314 53.4256253,52.359822 L53.406291,52.8131868 C53.406291,53.7802198 53.785059,54.6813187 54.542595,55.5164835 C55.3001311,56.3516484 56.2359109,56.7692308 57.3499345,56.7692308 C58.4193971,56.7692308 59.2549148,56.6263736 59.8564875,56.3406593 C60.4580603,56.0549451 61.0150721,55.7692308 61.5275229,55.4835165 C62.0399738,55.1978022 62.7195282,55.0549451 63.5661861,55.0549451 C64.9030144,55.0549451 66.0393185,55.3076923 66.9750983,55.8131868 C67.9108781,56.3186813 68.9134993,56.8901099 69.982962,57.5274725 C71.0524246,58.1648352 72.4115334,58.7362637 74.0602883,59.2417582 C75.7090433,59.7472527 77.91481,60 80.6775885,60 Z M67.3761468,39.5604396 C64.6133683,39.5604396 62.1847969,38.8571429 60.0904325,37.4505495 C57.9960682,36.043956 56.3584535,34.1428571 55.1775885,31.7472527 C53.9967235,29.3516484 53.406291,26.6813187 53.406291,23.7362637 C53.406291,20.7472527 53.9967235,18.0659341 55.1775885,15.6923077 C56.3584535,13.3186813 57.9960682,11.4285714 60.0904325,10.021978 C62.1847969,8.61538462 64.6133683,7.91208791 67.3761468,7.91208791 C70.1389253,7.91208791 72.5674967,8.61538462 74.6618611,10.021978 C76.7562254,11.4285714 78.4049803,13.3296703 79.6081258,15.7252747 C80.8112713,18.1208791 81.412844,20.7912088 81.412844,23.7362637 C81.412844,26.6813187 80.8112713,29.3516484 79.6081258,31.7472527 C78.4049803,34.1428571 76.7562254,36.043956 74.6618611,37.4505495 C72.5674967,38.8571429 70.1389253,39.5604396 67.3761468,39.5604396 Z M116.103539,47.1428571 C119.757536,47.1428571 122.965924,46.3516484 125.728702,44.7692308 C128.491481,43.1868132 130.663827,40.989011 132.24574,38.1758242 C133.827654,35.3626374 134.618611,32.1318681 134.618611,28.4835165 L134.618611,28.4835165 L134.618611,4.61538462 C134.618611,3.47252747 134.262123,2.51648352 133.549148,1.74725275 C132.836173,0.978021978 131.900393,0.593406593 130.741809,0.593406593 C129.583224,0.593406593 128.669725,0.978021978 128.001311,1.74725275 C127.332896,2.51648352 126.998689,3.47252747 126.998689,4.61538462 L126.998689,4.61538462 L126.998689,28.4835165 C126.998689,30.6813187 126.486239,32.5824176 125.461337,34.1868132 C124.436435,35.7912088 123.099607,37.032967 121.450852,37.9120879 C119.802097,38.7912088 118.019659,39.2307692 116.103539,39.2307692 C114.321101,39.2307692 112.638925,38.7912088 111.057012,37.9120879 C109.475098,37.032967 108.205111,35.7912088 107.247051,34.1868132 C106.288991,32.5824176 105.809961,30.6813187 105.809961,28.4835165 L105.809961,28.4835165 L105.809961,4.61538462 C105.809961,3.47252747 105.397772,2.51648352 104.573394,1.74725275 C103.749017,0.978021978 102.824377,0.593406593 101.799476,0.593406593 C100.551769,0.593406593 99.5268676,0.978021978 98.7247706,1.74725275 C97.9226737,2.51648352 97.5216252,3.47252747 97.5216252,4.61538462 L97.5216252,4.61538462 L97.5216252,28.4835165 C97.5216252,32.1318681 98.3125819,35.3626374 99.8944954,38.1758242 C101.476409,40.989011 103.659895,43.1868132 106.444954,44.7692308 C109.230013,46.3516484 112.449541,47.1428571 116.103539,47.1428571 Z M148.788991,46.8131868 C149.903014,46.8131868 150.883355,46.4285714 151.730013,45.6593407 C152.576671,44.8901099 153,43.9340659 153,42.7912088 L153,42.7912088 L153,4.68131868 C153,3.53846154 152.587811,2.58241758 151.763434,1.81318681 C150.939056,1.04395604 149.992136,0.659340659 148.922674,0.659340659 C147.674967,0.659340659 146.650066,1.04395604 145.847969,1.81318681 C145.045872,2.58241758 144.644823,3.53846154 144.644823,4.68131868 L144.644823,4.68131868 L144.644823,42.7912088 C144.644823,43.9340659 145.023591,44.8901099 145.781127,45.6593407 C146.538663,46.4285714 147.541284,46.8131868 148.788991,46.8131868 Z" id="AQUI" fill="#FFFFFF"></path>
                <path d="M93.2192422,100.035294 C95.8649071,100.035294 98.2751525,99.3529412 100.449979,97.9882353 C102.624805,96.6235294 104.407266,95.0313725 105.797361,93.2117647 C105.976728,92.9843137 106.066411,92.7113725 106.066411,92.3929412 C106.066411,92.0745098 105.954307,91.7901961 105.730098,91.54 C105.505889,91.2898039 105.236838,91.1647059 104.922946,91.1647059 C104.51937,91.1647059 104.138215,91.3694118 103.779481,91.7788235 C103.106854,92.7796078 102.232439,93.7121569 101.156237,94.5764706 C100.080034,95.4407843 98.8693061,96.1345098 97.5240528,96.6576471 C96.1787995,97.1807843 94.7438626,97.4423529 93.2192422,97.4423529 C90.0354761,97.4423529 87.3561799,96.7372549 85.1813538,95.3270588 C83.0065276,93.9168627 81.3698028,92.0517647 80.2711792,89.7317647 C79.1725557,87.4117647 78.6232439,84.8643137 78.6232439,82.0894118 L78.6232439,82.0894118 L78.6434227,81.2023529 L105.057471,81.2023529 C105.326522,81.2023529 105.570349,81.1191912 105.788953,80.9528676 L105.999149,80.7588235 C106.268199,80.4631373 106.402725,80.1333333 106.402725,79.7694118 C106.313041,77.0854902 105.830992,74.7768627 104.956577,72.8435294 C104.082163,70.9101961 102.938697,69.2952941 101.526181,67.9988235 C100.113665,66.7023529 98.5105719,65.7470588 96.7169008,65.1329412 C94.9232297,64.5188235 93.0847169,64.2117647 91.2013623,64.2117647 C88.6005392,64.2117647 86.145452,64.9282353 83.8361005,66.3611765 C81.526749,67.7941176 79.6433944,69.852549 78.1860366,72.5364706 C76.7286789,75.2203922 76,78.4729412 76,82.2941176 C76,85.8878431 76.7398893,89.0152941 78.2196679,91.6764706 C79.6994466,94.3376471 81.728537,96.3960784 84.3069391,97.8517647 C86.8853413,99.307451 89.856109,100.035294 93.2192422,100.035294 Z M103.644955,78.6094118 L78.9057471,78.6094118 L79.007602,78.0342857 C79.1357214,77.4104202 79.2958706,76.812549 79.4880496,76.2406723 L79.8003406,75.4023529 C80.5850717,73.4917647 81.6052221,71.9109804 82.8607918,70.66 C84.1163616,69.4090196 85.4840358,68.4764706 86.9638144,67.8623529 C88.443593,67.2482353 89.856109,66.9411765 91.2013623,66.9411765 C93.1295587,66.9411765 94.9904924,67.3619608 96.7841635,68.2035294 C98.5778345,69.045098 100.113665,70.2847059 101.391656,71.9223529 C102.669647,73.56 103.420746,75.5843137 103.644955,77.9952941 L103.644955,77.9952941 L103.644955,78.6094118 Z M125.908897,100.035294 C128.195828,100.035294 130.224918,99.66 131.996169,98.9094118 C133.767419,98.1588235 135.157514,97.0898039 136.166454,95.7023529 C137.175394,94.314902 137.679864,92.6658824 137.679864,90.7552941 C137.679864,89.1176471 137.399603,87.7529412 136.83908,86.6611765 C136.278558,85.5694118 135.516248,84.6596078 134.55215,83.9317647 C133.588052,83.2039216 132.467007,82.6011765 131.189017,82.1235294 C129.911026,81.6458824 128.532141,81.225098 127.052363,80.8611765 C125.21385,80.3607843 123.565915,79.814902 122.108557,79.2235294 C120.651199,78.6321569 119.485313,77.8815686 118.610898,76.9717647 C117.736484,76.0619608 117.254435,74.9019608 117.164751,73.4917647 C117.164751,71.9905882 117.568327,70.7509804 118.375479,69.7729412 C119.182631,68.794902 120.225202,68.0556863 121.503193,67.5552941 C122.781183,67.054902 124.160068,66.8047059 125.639847,66.8047059 C127.388676,66.8047059 129.036611,67.1231373 130.583653,67.76 C132.130694,68.3968627 133.487158,69.374902 134.653044,70.6941176 C134.877253,70.9670588 135.146303,71.1035294 135.460196,71.1035294 C135.774088,71.1035294 136.06556,71.012549 136.33461,70.8305882 C136.648503,70.5121569 136.81666,70.1596078 136.83908,69.7729412 C136.861501,69.3862745 136.693345,69.0564706 136.33461,68.7835294 C135.30325,67.6007843 134.182205,66.6796078 132.971477,66.02 C131.760749,65.3603922 130.550021,64.8941176 129.339293,64.6211765 C128.128565,64.3482353 126.9851,64.2117647 125.908897,64.2117647 C123.666809,64.2117647 121.69377,64.6098039 119.989783,65.4058824 C118.285795,66.2019608 116.962963,67.305098 116.021286,68.7152941 C115.079608,70.1254902 114.60877,71.7176471 114.60877,73.4917647 C114.60877,74.9929412 114.922662,76.2894118 115.550447,77.3811765 C116.178232,78.4729412 117.030226,79.4168627 118.106428,80.2129412 C119.182631,81.0090196 120.42699,81.6686275 121.839506,82.1917647 C123.252022,82.714902 124.743011,83.1811765 126.312473,83.5905882 C127.792252,83.9545098 129.204768,84.4094118 130.550021,84.9552941 C131.895275,85.5011765 132.993898,86.2403922 133.845892,87.1729412 C134.697886,88.1054902 135.123883,89.345098 135.123883,90.8917647 C135.123883,92.347451 134.686675,93.5756863 133.812261,94.5764706 C132.937846,95.5772549 131.816801,96.3278431 130.449127,96.8282353 C129.081453,97.3286275 127.657727,97.5788235 126.177948,97.5788235 C123.71165,97.5788235 121.570456,97.0556863 119.754364,96.0094118 C117.938272,94.9631373 116.447283,93.5984314 115.281396,91.9152941 C115.012346,91.5968627 114.687243,91.4262745 114.306088,91.4035294 C113.924933,91.3807843 113.622251,91.4831373 113.398042,91.7105882 C113.084149,91.9380392 112.915993,92.2223529 112.893572,92.5635294 C112.871151,92.9047059 113.016887,93.3482353 113.330779,93.8941176 C115.079608,96.0776471 117.030226,97.6470588 119.182631,98.6023529 C121.335036,99.5576471 123.577125,100.035294 125.908897,100.035294 Z M155.369945,99.3529412 C156.132255,99.3529412 156.77125,99.205098 157.286931,98.9094118 C157.802611,98.6137255 158.060451,98.2611765 158.060451,97.8517647 C158.060451,97.5333333 157.948347,97.2490196 157.724138,96.9988235 C157.499929,96.7486275 157.230878,96.6235294 156.916986,96.6235294 C156.603094,96.6235294 156.334043,96.6690196 156.109834,96.76 C155.885625,96.8509804 155.616574,96.8964706 155.302682,96.8964706 C154.764581,96.8964706 154.204058,96.7941176 153.621115,96.5894118 C153.038172,96.3847059 152.556123,95.9298039 152.174968,95.2247059 C151.793813,94.5196078 151.603235,93.4164706 151.603235,91.9152941 L151.603235,91.9152941 L151.603235,67.6235294 L159.002129,67.6235294 C159.271179,67.6235294 159.508701,67.5531618 159.714692,67.4124265 L159.910175,67.2482353 C160.156804,66.9980392 160.280119,66.6909804 160.280119,66.3270588 C160.280119,66.0086275 160.156804,65.7129412 159.910175,65.44 C159.663545,65.1670588 159.360863,65.0305882 159.002129,65.0305882 L159.002129,65.0305882 L151.603235,65.0305882 L151.603235,56.3647059 C151.603235,56.0917647 151.533871,55.8444118 151.395142,55.6226471 L151.233291,55.4094118 C150.986661,55.1364706 150.661558,55 150.257982,55 C149.899248,55 149.585355,55.1364706 149.316305,55.4094118 C149.047254,55.6823529 148.912729,56.0007843 148.912729,56.3647059 L148.912729,56.3647059 L148.912729,65.0305882 L143.39719,65.0305882 C143.161771,65.0305882 142.938963,65.1009559 142.728768,65.2416912 L142.522776,65.4058824 C142.253725,65.6560784 142.1192,65.9631373 142.1192,66.3270588 C142.1192,66.6454902 142.253725,66.9411765 142.522776,67.2141176 C142.791826,67.4870588 143.083298,67.6235294 143.39719,67.6235294 L143.39719,67.6235294 L148.912729,67.6235294 L148.912729,92.0517647 C148.912729,93.8031373 149.118721,95.1801042 149.530705,96.1826654 L149.719881,96.5894118 C150.257982,97.6129412 150.919398,98.3180392 151.704129,98.7047059 C152.488861,99.0913725 153.22875,99.2960784 153.923797,99.3188235 C154.618845,99.3415686 155.100894,99.3529412 155.369945,99.3529412 Z M182.00596,100.035294 C185.189726,100.035294 188.025968,99.2505882 190.514687,97.6811765 C193.003406,96.1117647 194.965233,93.9737255 196.40017,91.2670588 C197.835107,88.5603922 198.552576,85.5239216 198.552576,82.1576471 C198.552576,78.7458824 197.835107,75.6866667 196.40017,72.98 C194.965233,70.2733333 193.003406,68.1352941 190.514687,66.5658824 C188.025968,64.9964706 185.189726,64.2117647 182.00596,64.2117647 C178.867036,64.2117647 176.042004,64.9964706 173.530864,66.5658824 C171.019725,68.1352941 169.035476,70.2733333 167.578118,72.98 C166.120761,75.6866667 165.392082,78.7458824 165.392082,82.1576471 C165.392082,85.5239216 166.120761,88.5603922 167.578118,91.2670588 C169.035476,93.9737255 171.019725,96.1117647 173.530864,97.6811765 C176.042004,99.2505882 178.867036,100.035294 182.00596,100.035294 Z M182.00596,97.4423529 C179.360295,97.4423529 176.983681,96.7713725 174.876117,95.4294118 C172.768554,94.087451 171.109408,92.2678431 169.89868,89.9705882 C168.687952,87.6733333 168.082588,85.0690196 168.082588,82.1576471 C168.082588,79.2007843 168.687952,76.5737255 169.89868,74.2764706 C171.109408,71.9792157 172.768554,70.1596078 174.876117,68.8176471 C176.983681,67.4756863 179.360295,66.8047059 182.00596,66.8047059 C184.696467,66.8047059 187.084291,67.4756863 189.169434,68.8176471 C191.254576,70.1596078 192.891301,71.9792157 194.079608,74.2764706 C195.267915,76.5737255 195.862069,79.2007843 195.862069,82.1576471 C195.862069,85.0690196 195.267915,87.6733333 194.079608,89.9705882 C192.891301,92.2678431 191.254576,94.087451 189.169434,95.4294118 C187.084291,96.7713725 184.696467,97.4423529 182.00596,97.4423529 Z M218.126011,113 C221.175252,113 223.888179,112.317647 226.264794,110.952941 C228.641408,109.588235 230.524762,107.632157 231.914857,105.084706 C233.304952,102.537255 234,99.5121569 234,96.0094118 L234,96.0094118 L234,65.5764706 C234,65.212549 233.876685,64.8941176 233.630055,64.6211765 C233.383426,64.3482353 233.058323,64.2117647 232.654747,64.2117647 C232.251171,64.2117647 231.926068,64.3482353 231.679438,64.6211765 C231.432808,64.8941176 231.309493,65.212549 231.309493,65.5764706 L231.309493,65.5764706 L231.309493,86.8658824 C231.309493,88.5945098 230.72655,90.2776471 229.560664,91.9152941 C228.394778,93.5529412 226.903789,94.8835294 225.087697,95.9070588 C223.271605,96.9305882 221.354619,97.4423529 219.336739,97.4423529 C215.973606,97.4423529 213.585781,96.4870588 212.173265,94.5764706 C210.760749,92.6658824 210.054491,90.0956863 210.054491,86.8658824 L210.054491,86.8658824 L210.054491,65.5764706 C210.054491,65.212549 209.931176,64.8941176 209.684547,64.6211765 C209.437917,64.3482353 209.112814,64.2117647 208.709238,64.2117647 C208.305662,64.2117647 207.980559,64.3482353 207.733929,64.6211765 C207.4873,64.8941176 207.363985,65.212549 207.363985,65.5764706 L207.363985,65.5764706 L207.363985,86.8658824 C207.363985,89.5043137 207.778771,91.8015686 208.608344,93.7576471 C209.437917,95.7137255 210.738328,97.2490196 212.509579,98.3635294 C214.280829,99.4780392 216.556549,100.035294 219.336739,100.035294 C221.040727,100.035294 222.688662,99.7054902 224.280545,99.0458824 C225.872428,98.3862745 227.307365,97.4992157 228.585355,96.3847059 C229.863346,95.2701961 230.816234,94.0305882 231.444019,92.6658824 L231.309493,92.9285882 L231.309493,96.0094118 C231.309493,98.5170588 230.888927,100.763493 230.047793,102.748713 L229.661558,103.583529 C228.562935,105.767059 227.038314,107.472941 225.087697,108.701176 C223.13708,109.929412 220.861359,110.543529 218.260536,110.543529 C216.33234,110.543529 214.594721,110.225098 213.04768,109.588235 C211.500639,108.951373 210.345963,108.40549 209.583653,107.950588 C209.26976,107.723137 208.944657,107.677647 208.608344,107.814118 C208.272031,107.950588 208.01419,108.200784 207.834823,108.564706 C207.655456,108.928627 207.655456,109.269804 207.834823,109.588235 C208.01419,109.906667 208.26082,110.179608 208.574713,110.407059 C209.606074,111.134902 210.940116,111.74902 212.576841,112.249412 C214.213566,112.749804 216.063289,113 218.126011,113 Z" id="estoy" fill="#72B230"></path>
            </g>
        </g>
    </g>
</svg>