<?xml version="1.0" encoding="UTF-8"?>
<svg width="30px" height="38px" viewBox="0 0 30 38" version="1.1" xmlns="http://www.w3.org/2000/svg" xmlns:xlink="http://www.w3.org/1999/xlink">
    <title>Shape</title>
    <g id="Symbols" stroke="none" stroke-width="1" fill="none" fill-rule="evenodd">
        <g id="Logo/sembrar" transform="translate(-4.000000, 0.000000)" fill="#72B230">
            <path d="M28.2337931,29.0662175 C27.6156322,29.0662175 27.0068199,29.1616612 26.4277395,29.3468338 C25.9084291,28.1722677 25.0927969,27.1242425 24.0549425,26.3163851 C22.9288123,25.4398022 21.572567,24.8757493 20.1495019,24.6764753 L20.1495019,15.6109567 C21.7818391,15.50631 24.7156322,15.0332477 26.74,13.0724957 C29.6178544,10.2851093 29.3924904,5.71516699 29.3814559,5.52197885 C29.3491954,4.95540249 28.882069,4.50297264 28.2970881,4.47172708 C28.0977778,4.46096554 23.3792337,4.24276611 20.5013793,7.03007835 C20.1951724,7.32665146 19.9244444,7.64356017 19.6844444,7.97301163 C19.2628352,6.33213703 18.4704215,4.49889068 16.9893487,3.06441494 C13.5517241,-0.264981892 7.89501916,-0.00321678641 7.65601533,0.00962284024 C7.07103448,0.0408684057 6.60390805,0.493298256 6.57164751,1.05987461 C6.55846743,1.29150742 6.28804598,6.77016868 9.7256705,10.0995655 C12.2440613,12.5387235 15.9529502,13.0503047 17.8505747,13.1444867 L17.8505747,24.6763268 C16.4275096,24.875675 15.0712644,25.4396538 13.9451341,26.3162366 C12.9072797,27.1240941 12.0916475,28.1721193 11.5723372,29.3466854 C10.9932567,29.1615127 10.3844444,29.066069 9.76628352,29.066069 C6.5867433,29.066069 4,31.571429 4,34.6509355 L4,36.8867376 C4,37.5015553 4.51463602,38 5.14942529,38 L32.8505747,38 C33.485364,38 34,37.5015553 34,36.8867376 L34,34.6509355 C34,31.5715774 31.4133333,29.0662175 28.2337931,29.0662175 L28.2337931,29.0662175 Z M31,36 L6,36 L6,34.8715026 C6,33.0098736 7.53084465,31.4953368 9.41251885,31.4953368 C10.066365,31.4953368 10.7022624,31.6797016 11.2515083,32.0284352 C11.5608597,32.2248124 11.9473605,32.2602528 12.2879336,32.1235648 C12.6285068,31.9868021 12.8806938,31.6948477 12.964178,31.3406674 C13.5665913,28.7850031 15.8429864,27 18.5,27 C21.1570136,27 23.4334087,28.7849285 24.035822,31.3406674 C24.1192308,31.6948477 24.3714932,31.9868021 24.7120664,32.1235648 C25.0526395,32.2603275 25.4391403,32.2248124 25.7484917,32.0284352 C26.2977376,31.6797016 26.933635,31.4953368 27.5874811,31.4953368 C29.4691554,31.4953368 31,33.0098736 31,34.8715026 L31,36 Z M15.5204184,4.48081471 C17.4434947,6.40275398 17.8990697,9.39324273 18,11 C16.3946071,10.9022141 13.4119947,10.4503787 11.4796588,8.51918529 C9.5565825,6.59724602 9.10093025,3.60675727 9,2 C10.6053929,2.09770873 13.5880825,2.54962126 15.5204184,4.48081471 L15.5204184,4.48081471 Z M21.9743851,8.97580645 C23.4280747,7.52346752 25.655881,7.11196497 27,7 C26.884716,8.34615986 26.4698345,10.5814717 25.0256932,12.0241935 C23.571847,13.4766107 21.344119,13.888035 20,14 C20.1153623,12.6538401 20.5302437,10.4185283 21.9743851,8.97580645 Z" id="Shape"></path>
        </g>
    </g>
</svg>