<svg width="26px" height="26px" viewBox="0 0 26 26" version="1.1" xmlns="http://www.w3.org/2000/svg" xmlns:xlink="http://www.w3.org/1999/xlink">
    <g id="Symbols" stroke="none" stroke-width="1" fill="none" fill-rule="evenodd">
        <g id="Calendario" fill="#FFFFFF" fill-rule="nonzero">
            <g id="calendar">
                <path d="M22.2083164,2 L21.125,2 C20.826,2 20.5833164,2.24438086 20.5833164,2.54547198 C20.5833164,2.8465631 20.826,3.09089282 21.125,3.09089282 L22.2083164,3.09089282 C23.70225,3.09089282 24.9166328,4.31381983 24.9166328,5.81815044 L24.9166328,22.1817984 C24.9166328,23.6861802 23.7021992,24.909056 22.2083164,24.909056 L3.79168359,24.909056 C2.29775,24.909056 1.08336719,23.686129 1.08336719,22.1817984 L1.08336719,5.81815044 C1.08331641,4.31381983 2.29775,3.09089282 3.79168359,3.09089282 L4.875,3.09089282 C5.174,3.09089282 5.41668359,2.84651196 5.41668359,2.54542084 C5.41668359,2.24432972 5.174,2 4.875,2 L3.79168359,2 C1.70081641,2 0,3.71271144 0,5.81815044 L0,22.1817984 C0,24.2872886 1.70081641,26 3.79168359,26 L22.2083672,26 C24.2991836,26 26,24.2872886 26,22.1817984 L26,5.81815044 C26,3.71271144 24.2991836,2 22.2083164,2 Z" id="Path"></path>
                <path d="M16.4375363,2 L8.56251648,2 C8.25201709,2 8,2.22401913 8,2.50002344 C8,2.77602775 8.25201709,3 8.56251648,3 L16.4374835,3 C16.7479829,3 17,2.77598087 17,2.49997656 C17,2.22397225 16.7480356,2 16.4375363,2 Z" id="Path"></path>
                <path d="M25.4582667,8 L0.541682536,8 C0.24268312,8 0,8.22400862 0,8.5 C0,8.77599138 0.24268312,9 0.541682536,9 L25.4583175,9 C25.7573169,9 26,8.77599138 26,8.5 C26,8.22400862 25.7572661,8 25.4582667,8 Z" id="Path"></path>
                <path d="M7.5,0 C7.22400862,0 7,0.224014925 7,0.500014062 L7,4.49998594 C7,4.77598508 7.22400862,5 7.5,5 C7.77599138,5 8,4.77598508 8,4.49998594 L8,0.500014062 C7.99995313,0.224014925 7.77599138,0 7.5,0 Z" id="Path"></path>
                <path d="M18.5,0 C18.2240086,0 18,0.224014925 18,0.500014062 L18,4.49998594 C18,4.77598508 18.2240086,5 18.5,5 C18.7759914,5 19,4.77598508 19,4.49998594 L19,0.500014062 C19,0.224014925 18.7759914,0 18.5,0 Z" id="Path"></path>
            </g>
        </g>
    </g>
</svg>
