<svg width="29px" height="23px" viewBox="0 0 29 23" version="1.1" xmlns="http://www.w3.org/2000/svg" xmlns:xlink="http://www.w3.org/1999/xlink">
    <g id="-" stroke="none" stroke-width="1" fill="none" fill-rule="evenodd">
        <g id="Mi-cuenta" transform="translate(-21.000000, -35.000000)">
            <g id="Rectangle-Copy-5">
                <use fill="black" fill-opacity="1" filter="url(#filter-3)" xlink:href="#path-2"></use>
                <use fill="url(#linearGradient-1)" fill-rule="evenodd" xlink:href="#path-2"></use>
            </g>
            <g id="Rectangle" transform="translate(-2.000000, 0.000000)" fill="url(#linearGradient-4)">
                <rect x="0" y="0" width="414" height="109"></rect>
            </g>
            <g id="right-arrow" transform="translate(35.500000, 46.500000) rotate(-180.000000) translate(-35.500000, -46.500000) translate(21.000000, 35.000000)" fill="#FFFFFF" fill-rule="nonzero">
                <path d="M16.6511618,23 C16.2921885,23.0006233 16.0006713,22.7299757 16,22.3955828 C15.9996963,22.2343748 16.068432,22.0796947 16.190974,21.9658274 L27.4318152,11.4959976 L16.190974,1.02611109 C15.9415635,0.785604777 15.9487539,0.402281868 16.2069392,0.169949473 C16.4588482,-0.0566498242 16.858161,-0.0566498242 17.1100089,0.169949473 L28.8096973,11.0685128 C29.0634342,11.3049322 29.0634342,11.6881984 28.8096973,11.9246745 L17.1100089,22.8232378 C16.9882591,22.936424 16.8232447,23 16.6511618,23 Z" id="Path"></path>
                <path d="M27.4165949,12 L0.583350423,12 C0.26118699,12 0,11.7761684 0,11.5000234 C0,11.2238785 0.26118699,11 0.583350423,11 L27.4166496,11 C27.738813,11 28,11.2238785 28,11.5000234 C28,11.7761684 27.7387583,12 27.4165949,12 Z" id="Path"></path>
            </g>
        </g>
    </g>
</svg>
