<svg width="26px" height="20px" viewBox="0 0 26 20" version="1.1" xmlns="http://www.w3.org/2000/svg" xmlns:xlink="http://www.w3.org/1999/xlink">
    <g id="Symbols" stroke="none" stroke-width="1" fill="none" fill-rule="evenodd">
        <g id="Contactar" fill="#FFFFFF" fill-rule="nonzero">
            <path d="M23.8333164,0 L2.16668359,0 C0.971699219,0 0,0.996614583 0,2.22223958 L0,17.7778125 C0,19.0033854 0.971699219,20 2.16668359,20 L23.8333672,20 C25.0283008,20 26,19.0033854 26,17.7777604 L26,2.22223958 C26,0.996614583 25.0283008,0 23.8333164,0 Z M2.22422383,1 L23.7761298,1 C23.855535,1 23.9254944,1.02984375 24,1.04671875 C22.1341284,2.8075 15.9471872,8.64354167 13.782081,10.6549479 C13.612663,10.8122917 13.3395938,11 13.000202,11 C12.6608103,11 12.3877411,10.8122917 12.2177675,10.6544271 C10.0528634,8.64333333 3.86556856,2.80697917 2,1.04682292 C2.07465709,1.02994792 2.14476808,1 2.22422383,1 Z M1,17.7131451 L1,2.30418996 C1,2.19636143 1.0332852,2.09854186 1.06308337,2 C2.55679617,3.33501009 7.07217076,7.36872586 10,9.9686317 C7.08168081,12.4165457 2.56514388,16.5980227 1.05954352,18 C1.03296819,17.906411 1,17.8148858 1,17.7131451 Z M23.7574527,19 L2.24254732,19 C2.15662203,19 2.08022719,18.9697292 2,18.9503641 C3.48488377,17.5197888 7.82300143,13.3657593 10.5593487,11 C10.9160596,11.3270163 11.2419101,11.6251887 11.4987783,11.8590994 C11.9421205,12.2636273 12.4610508,12.4770007 13,12.4770007 C13.5389492,12.4770007 14.0578795,12.2635763 14.500667,11.859609 C14.757636,11.6255964 15.0837386,11.3271692 15.4406513,11 C18.1771499,13.3655045 22.5146624,17.5192282 24,18.9503641 C23.9197728,18.9697292 23.8434788,19 23.7574527,19 Z M25,17.713147 C25,17.8148354 24.9670316,17.9064116 24.940509,18 C23.4343186,16.5973095 18.9182835,12.4163238 16,9.96873509 C18.9279521,7.36884601 23.4426664,3.33551741 24.9369163,2 C24.9667146,2.09854123 25,2.19641176 25,2.30423959 L25,17.713147 L25,17.713147 Z" id="Shape"></path>
        </g>
    </g>
</svg>
