<svg width="16px" height="17px" viewBox="0 0 16 17" version="1.1" xmlns="http://www.w3.org/2000/svg" xmlns:xlink="http://www.w3.org/1999/xlink">
    <g id="Symbols" stroke="none" stroke-width="1" fill="none" fill-rule="evenodd">
        <g id="Edit" transform="translate(-5.000000, -5.000000)" fill="#FFFFFF" fill-rule="nonzero">
            <g id="edit" transform="translate(5.000000, 5.435323)">
                <path d="M14.6058749,9.78781119 C14.3881824,9.78781119 14.2117499,9.9616131 14.2117499,10.1760597 L14.2117499,13.6232822 C14.21098,14.2663189 13.6821443,14.7874212 13.0293746,14.7880279 L1.97062536,14.7880279 C1.31785571,14.7874212 0.789019911,14.2663189 0.788250146,13.6232822 L0.788250146,3.50591936 C0.789019911,2.86303435 1.31785571,2.341932 1.97062536,2.34117371 L5.47002492,2.34117371 C5.68771746,2.34117371 5.86414999,2.16737181 5.86414999,1.95292517 C5.86414999,1.73863018 5.68771746,1.56467662 5.47002492,1.56467662 L1.97062536,1.56467662 C0.882778601,1.56588989 0.00123164085,2.43429268 0,3.50591936 L0,13.6234339 C0.00123164085,14.6950606 0.882778601,15.5634633 1.97062536,15.5646766 L13.0293746,15.5646766 C14.1172214,15.5634633 14.9987684,14.6950606 15,13.6234339 L15,10.1760597 C15,9.9616131 14.8235674,9.78781119 14.6058749,9.78781119 Z" id="Path"></path>
                <path d="M15.0664561,1.05890708 C14.4074237,0.399933128 13.3389678,0.399933128 12.6799353,1.05890708 L5.98970837,7.74854028 C5.94385882,7.79438576 5.91075337,7.85121662 5.89346825,7.91361334 L5.01368409,11.0895486 C4.97750248,11.2197615 5.01426999,11.3592021 5.10977773,11.4548478 C5.20543191,11.5503471 5.34488489,11.5871113 5.47510934,11.5510794 L8.65132653,10.6712269 C8.71372879,10.6539432 8.77056466,10.6208408 8.81641425,10.5749952 L15.5064947,3.88521559 C16.1645018,3.22580221 16.1645018,2.15832002 15.5064947,1.4989066 L15.0664561,1.05890708 Z M6.80679733,7.99226837 L12.2822307,2.51717447 L14.0480979,4.28288494 L8.572518,9.75797884 L6.80679733,7.99226837 Z M6.45406334,8.70001727 L7.8648528,10.110828 L5.9133901,10.6514532 L6.45406334,8.70001727 Z M14.9762218,3.3549898 L14.5785172,3.75265915 L12.8125036,1.98680222 L13.2103546,1.58913287 C13.5764187,1.2231013 14.1699727,1.2231013 14.5360368,1.58913287 L14.9762218,2.02913239 C15.3417,2.39560338 15.3417,2.98866531 14.9762218,3.3549898 L14.9762218,3.3549898 Z" id="Shape"></path>
            </g>
        </g>
    </g>
</svg>
