<svg width="49px" height="49px" viewBox="0 0 49 49" version="1.1" xmlns="http://www.w3.org/2000/svg" xmlns:xlink="http://www.w3.org/1999/xlink">
    <g id="Page-1" stroke="none" stroke-width="1" fill="none" fill-rule="evenodd">
        <g id="facebook" fill="#D71200" fill-rule="nonzero">
            <path d="M44.92,43 C44.92,44.0603867 44.0603867,44.92 43,44.92 L32.16,44.92 L32.16,29.41 L38.05,29.41 L39.05,23.51 L32.16,23.51 L32.16,19.41 C32.1491735,18.6526048 32.4445821,17.9229163 32.9792539,17.3863618 C33.5139258,16.8498073 34.2425714,16.5518357 35,16.56 L38.9,16.56 L38.9,10.66 L35,10.66 C32.6750682,10.6573262 30.4448827,11.5810882 28.8027843,13.2269399 C27.160686,14.8727916 26.2420181,17.1050804 26.25,19.43 L26.25,23.51 L20.56,23.51 L20.56,29.41 L26.27,29.41 L26.27,44.92 L5.71,44.92 C5.20343434,44.9173548 4.71866789,44.7135819 4.36234727,44.3535105 C4.00602666,43.9934392 3.80734088,43.5065656 3.80997365,43 L3.80997365,5.71 C3.80997365,4.66065898 4.66065898,3.81 5.71,3.81 L43,3.81 C44.0509709,3.81 44.9044975,4.65904347 44.91,5.71 L44.92,43 Z M43,-8.76916758e-06 L5.71,-8.76916758e-06 C2.55645408,-8.76916758e-06 0,2.55645408 0,5.71 L0,42.9999912 C0,44.5143862 0.601587558,45.966747 1.67242028,47.0375797 C2.743253,48.1084124 4.19561384,48.7100088 5.71,48.7100088 L43,48.7100088 C44.516118,48.7126552 45.9710492,48.11224 47.0440457,47.0411194 C48.1170422,45.9699987 48.72,44.5161204 48.72,42.9999912 L48.72,5.71 C48.72,4.19387964 48.1170422,2.74000127 47.0440457,1.66888063 C45.9710492,0.597759985 44.516118,-0.00265520203 43,-8.76916758e-06" id="Shape"></path>
        </g>
    </g>
</svg>
