<svg width="49px" height="49px" viewBox="0 0 49 49" version="1.1" xmlns="http://www.w3.org/2000/svg" xmlns:xlink="http://www.w3.org/1999/xlink">
    <g id="Page-1" stroke="none" stroke-width="1" fill="none" fill-rule="evenodd">
        <g id="instagram" fill="#D71200" fill-rule="nonzero">
            <path d="M14.15,3.81 C8.44166066,3.81551264 3.81551264,8.44166066 3.81,14.15 L3.81,34.57 C3.81550092,40.2799645 8.44004344,44.9089795 14.15,44.92 L34.57,44.92 C40.2838622,44.9144873 44.9144873,40.2838622 44.92,34.57 L44.92,14.15 C44.9089795,8.44004344 40.2799645,3.81550092 34.57,3.81 L14.15,3.81 Z M34.57,48.72 L14.15,48.72 C6.33973828,48.7089841 0.0110159004,42.3802617 0,34.57 L0,14.15 C0.0110159004,6.33973828 6.33973828,0.0110159004 14.15,0 L34.57,0 C42.3802617,0.0110159004 48.7089841,6.33973828 48.72,14.15 L48.72,34.57 C48.7089841,42.3802617 42.3802617,48.7089841 34.57,48.72" id="Shape"></path>
            <path d="M24.36,15 C20.5854577,15 17.1827702,17.2742672 15.7392514,20.7618771 C14.2957326,24.249487 15.0958023,28.2632698 17.7662375,30.9308427 C20.4366726,33.5984157 24.4513111,34.3941807 27.937371,32.9469226 C31.4234309,31.4996645 33.6940456,28.0945401 33.6900054,24.32 C33.6844813,19.171089 29.508914,15 24.36,15 M24.36,37.45 C19.045776,37.4499753 14.2555904,34.2466083 12.2256819,29.335351 C10.1957734,24.4240937 11.3264713,18.7735219 15.0899234,15.0215351 C18.8533755,11.2695482 24.5073708,10.156096 29.4124117,12.2009798 C34.3174527,14.2458636 37.5061896,19.0458007 37.4900614,24.36 C37.4844852,31.6092132 31.6092132,37.4844852 24.36,37.49" id="Shape"></path>
            <path d="M37.68,9.14 C38.729341,9.14 39.58,9.99065898 39.58,11.04 C39.58,12.089341 38.729341,12.94 37.68,12.94 C36.630659,12.94 35.78,12.089341 35.78,11.04 C35.78,9.99065898 36.630659,9.14 37.68,9.14" id="Path"></path>
        </g>
    </g>
</svg>
