<svg width="22px" height="19px" viewBox="0 0 22 19" version="1.1" xmlns="http://www.w3.org/2000/svg" xmlns:xlink="http://www.w3.org/1999/xlink">
    <g id="Pages" stroke="none" stroke-width="1" fill="none" fill-rule="evenodd">
        <g id="Mensajes" transform="translate(-53.000000, -424.000000)">
            <g id="Rectangle-Copy-5">
                <use fill="black" fill-opacity="1" filter="url(#filter-3)" xlink:href="#path-2"></use>
                <use fill="url(#linearGradient-1)" fill-rule="evenodd" xlink:href="#path-2"></use>
            </g>
            <g id="Submenu" transform="translate(0.000000, 411.000000)">
                <rect id="Rectangle-Copy-3" fill="url(#linearGradient-4)" x="0" y="0" width="415" height="44"></rect>
                <rect id="Rectangle-Copy-7" fill="url(#linearGradient-5)" x="0" y="0" width="207" height="44"></rect>
                <g id="tractor-copy" transform="translate(53.000000, 13.000000)" fill="#FFFFFF" fill-rule="nonzero">
                    <path d="M5,8.1953125 C2.24300129,8.1953125 0,10.4383138 0,13.1953125 C0,15.9523112 2.24300129,18.1953125 5,18.1953125 C7.75699871,18.1953125 10,15.9523112 10,13.1953125 C10,10.4383138 7.75699871,8.1953125 5,8.1953125 Z M5,16.9453125 C2.93229167,16.9453125 1.25,15.2630208 1.25,13.1953125 C1.25,11.1276042 2.93229167,9.4453125 5,9.4453125 C7.06770833,9.4453125 8.75,11.1276042 8.75,13.1953125 C8.75,15.2630208 7.06770833,16.9453125 5,16.9453125 Z" id="Shape"></path>
                    <path d="M5,11.1953125 C3.89722222,11.1953125 3,12.0925347 3,13.1953125 C3,14.2980903 3.89722222,15.1953125 5,15.1953125 C6.10277778,15.1953125 7,14.2980903 7,13.1953125 C7,12.0925347 6.10277778,11.1953125 5,11.1953125 Z M5,14.1953125 C4.44869793,14.1953125 4,13.7466146 4,13.1953125 C4,12.6440104 4.44869793,12.1953125 5,12.1953125 C5.55130207,12.1953125 6,12.6440104 6,13.1953125 C6,13.7466146 5.55130207,14.1953125 5,14.1953125 Z" id="Shape"></path>
                    <path d="M20.6970704,11.465904 L20.6970704,9.1953125 C20.6970704,7.77734373 19.5281662,6.62388393 18.0912112,6.62388393 L16.7882817,6.62388393 L16.7882817,3.40959821 C16.7882817,3.05518974 17.0805926,2.76674107 17.4397464,2.76674107 L17.4397464,1.48102679 C16.3621151,1.48102679 15.4853521,2.34620536 15.4853521,3.40959821 L15.4853521,6.62388393 L12.6258627,6.62388393 L11.0623472,1.48102679 L12.1411661,1.48102679 L12.1411661,0.1953125 L1.71772943,0.1953125 L1.71772943,1.48102679 L3.02065901,1.48102679 L3.02065901,5.58409597 C1.91978531,5.86501117 0.885075986,6.38030133 0,7.10167413 L0.829599676,8.09308036 C1.99222681,7.14570311 3.4644694,6.62388393 4.97505339,6.62388393 C8.567271,6.62388393 11.4897013,9.50770087 11.4897013,13.0524554 L11.4897013,14.9810268 L14.2370505,14.9810268 C14.5481928,16.8029576 16.1578537,18.1953125 18.0912112,18.1953125 C20.2464739,18.1953125 22,16.4649554 22,14.3381696 C22,13.1984375 21.4963024,12.172712 20.6970704,11.465904 Z M4.3235886,5.3654576 L4.3235886,1.48102679 L9.70207516,1.48102679 L11.2655907,6.62388393 L9.29134693,6.62388393 C8.05356383,5.81194199 6.56944564,5.33816964 4.97505339,5.33816964 C4.75705021,5.33816964 4.5397256,5.34754464 4.3235886,5.3654576 Z M10.7965021,7.90959821 L18.0912112,7.90959821 C18.8096887,7.90959821 19.3941408,8.48632811 19.3941408,9.1953125 L19.3941408,10.7016741 C18.9864664,10.5590402 18.5479152,10.4810268 18.0912112,10.4810268 L12.3454275,10.4810268 C12.001203,9.5232701 11.4707003,8.6518973 10.7965021,7.90959821 Z M12.6833748,11.7667411 L15.1804869,11.7667411 C14.6978262,12.2981027 14.3622539,12.9618862 14.2370505,13.6953125 L12.7926309,13.6953125 L12.7926309,13.0524554 C12.7926309,12.6145089 12.7549681,12.1851005 12.6833748,11.7667411 L12.6833748,11.7667411 Z M18.0912112,16.9095982 C16.6542563,16.9095982 15.4853521,15.7561384 15.4853521,14.3381696 C15.4853521,12.9202009 16.6542563,11.7667411 18.0912112,11.7667411 C19.5281662,11.7667411 20.6970704,12.9202009 20.6970704,14.3381696 C20.6970704,15.7561384 19.5281662,16.9095982 18.0912112,16.9095982 Z" id="Shape"></path>
                </g>
            </g>
        </g>
    </g>
</svg>
