<svg width="18px" height="18px" viewBox="0 0 18 18" version="1.1" xmlns="http://www.w3.org/2000/svg" xmlns:xlink="http://www.w3.org/1999/xlink">
    <g id="Symbols" stroke="none" stroke-width="1" fill="none" fill-rule="evenodd">
        <g id="Plus" transform="translate(-4.000000, -4.000000)" fill="#FFFFFF" fill-rule="nonzero">
            <path d="M21.296875,12.296875 L13.703125,12.296875 L13.703125,4.703125 C13.703125,4.31478906 13.3883359,4 13,4 C12.6116641,4 12.296875,4.31478906 12.296875,4.703125 L12.296875,12.296875 L4.703125,12.296875 C4.31478906,12.296875 4,12.6116641 4,13 C4,13.3883359 4.31478906,13.703125 4.703125,13.703125 L12.296875,13.703125 L12.296875,21.296875 C12.296875,21.6852109 12.6116641,22 13,22 C13.3883359,22 13.703125,21.6852109 13.703125,21.296875 L13.703125,13.703125 L21.296875,13.703125 C21.6852109,13.703125 22,13.3883359 22,13 C22,12.6116641 21.6852109,12.296875 21.296875,12.296875 Z" id="Path"></path>
        </g>
    </g>
</svg>
