<svg width="30px" height="30px" viewBox="0 0 30 30" version="1.1" xmlns="http://www.w3.org/2000/svg" xmlns:xlink="http://www.w3.org/1999/xlink">
    <g id="Symbols" stroke="none" stroke-width="1" fill="none" fill-rule="evenodd">
        <g id="settings" fill="#FFFFFF" fill-rule="nonzero">
            <g id="Shape">
                <path d="M15.9413672,30 L14.0585742,30 C12.5357812,30 11.2968164,28.7610937 11.2968164,27.2383008 L11.2968164,26.6013281 C10.6494141,26.3944922 10.0204102,26.1333984 9.41613281,25.8206836 L8.96472656,26.2720898 C7.87142578,27.3667383 6.12011719,27.3346289 5.05857422,26.2716797 L3.72785156,24.9410156 C2.66443359,23.8787695 2.63384766,22.1280469 3.72820312,21.0348633 L4.17925781,20.5838086 C3.86654297,19.9795313 3.60550781,19.3506445 3.39861328,18.703125 L2.76169922,18.703125 C1.23896484,18.703125 0,17.4642188 0,15.9414258 L0,14.0585742 C0,12.5357813 1.23896484,11.296875 2.76175781,11.296875 L3.39867187,11.296875 C3.60556641,10.6494141 3.86660156,10.0204688 4.17931641,9.41619141 L3.72791016,8.96484375 C2.63419922,7.87230469 2.664375,6.12140625 3.72826172,5.05869141 L5.05910156,3.72791016 C6.12310547,2.66244141 7.87400391,2.63583984 8.96519531,3.72826172 L9.41619141,4.17925781 C10.0204687,3.86660156 10.6494727,3.60550781 11.296875,3.39861328 L11.296875,2.76169922 C11.296875,1.23890625 12.5357813,0 14.0586328,0 L15.9414258,0 C17.4642188,0 18.703125,1.23890625 18.703125,2.76169922 L18.703125,3.39867188 C19.3505273,3.60550781 19.9795312,3.86660156 20.5838086,4.17931641 L21.0352148,3.72791016 C22.1285156,2.63326172 23.8798242,2.66537109 24.9413672,3.72832031 L26.2720898,5.05898438 C27.3355078,6.12123047 27.3660938,7.87195313 26.2717383,8.96513672 L25.8206836,9.41619141 C26.1333984,10.0204688 26.3944336,10.6493555 26.6013281,11.296875 L27.2382422,11.296875 C28.7610352,11.296875 30,12.5357813 30,14.0585742 L30,15.9414258 C30,17.4642188 28.7610352,18.703125 27.2382422,18.703125 L26.6013281,18.703125 C26.3944336,19.3505859 26.1333984,19.9795313 25.8206836,20.5838086 L26.2720898,21.0352148 C27.3658008,22.1277539 27.335625,23.8786523 26.2717383,24.9413672 L24.9408984,26.2721484 C23.8768945,27.3376172 22.1259961,27.3642188 21.0348047,26.2717969 L20.5838086,25.8208008 C19.9795313,26.133457 19.3505273,26.3945508 18.703125,26.6014453 L18.703125,27.238418 C18.703125,28.7610938 17.4642188,30 15.9413672,30 Z M9.70998047,23.9748047 C10.5494531,24.4712695 11.4529687,24.8463281 12.3953906,25.0895508 C12.7835156,25.1896875 13.0546875,25.5397266 13.0546875,25.9405664 L13.0546875,27.2383008 C13.0546875,27.7918359 13.5050977,28.2421875 14.0586328,28.2421875 L15.9414258,28.2421875 C16.4949609,28.2421875 16.9453711,27.7918359 16.9453711,27.2383008 L16.9453711,25.9405664 C16.9453711,25.5397266 17.216543,25.1896875 17.604668,25.0895508 C18.5470898,24.8463281 19.4506055,24.4712695 20.2900781,23.9748047 C20.6354883,23.7705469 21.0752344,23.8260937 21.3590039,24.1098633 L22.2782227,25.0291406 C22.6745508,25.4259375 23.3109961,25.4167383 23.6975977,25.0295508 L25.0292578,23.6979492 C25.4149219,23.3127539 25.4278125,22.6761914 25.0296094,22.2785156 L24.1099805,21.3588867 C23.8262695,21.0751758 23.7707227,20.6353711 23.9749219,20.2900195 C24.4713867,19.4506055 24.8463867,18.5470898 25.0896094,17.6046094 C25.1898047,17.2164844 25.5398437,16.9453711 25.940625,16.9453711 L27.2383008,16.9453711 C27.7918359,16.9453711 28.2422461,16.4950195 28.2422461,15.9414844 L28.2422461,14.0586328 C28.2422461,13.5050977 27.7918359,13.0547461 27.2383008,13.0547461 L25.940625,13.0547461 C25.5397852,13.0547461 25.1898047,12.7835742 25.0896094,12.3955078 C24.8463867,11.4530273 24.4713281,10.5495117 23.9749219,9.71009766 C23.7707227,9.36474609 23.8262695,8.92494141 24.1099805,8.64123047 L25.0292578,7.72195312 C25.4266406,7.32503906 25.4162695,6.68871094 25.0296094,6.30251953 L23.6980664,4.97097656 C23.3121094,4.58449219 22.6755469,4.57318359 22.2786328,4.970625 L21.3590625,5.89025391 C21.0753516,6.17402344 20.6354297,6.22957031 20.2901367,6.0253125 C19.4506641,5.52884766 18.5471484,5.15378906 17.6047266,4.91056641 C17.2166016,4.81042969 16.9454297,4.46039062 16.9454297,4.05955078 L16.9454297,2.76169922 C16.9454297,2.20816406 16.4950195,1.7578125 15.9414844,1.7578125 L14.0586914,1.7578125 C13.5051562,1.7578125 13.0547461,2.20816406 13.0547461,2.76169922 L13.0547461,4.05943359 C13.0547461,4.46027344 12.7835742,4.8103125 12.3954492,4.91044922 C11.4530273,5.15367187 10.5495117,5.52873047 9.71003906,6.02519531 C9.36457031,6.22939453 8.92482422,6.17384766 8.64111328,5.89013672 L7.72189453,4.97085937 C7.32556641,4.5740625 6.6890625,4.58326172 6.30251953,4.97044922 L4.97085937,6.30205078 C4.58519531,6.68724609 4.57230469,7.32375 4.97050781,7.72148437 L5.89013672,8.64111328 C6.17384766,8.92482422 6.22939453,9.36462891 6.02519531,9.70998047 C5.52873047,10.5493945 5.15373047,11.4529102 4.91050781,12.3953906 C4.8103125,12.7835156 4.46027344,13.0546289 4.05949219,13.0546289 L2.76175781,13.0546289 C2.20822266,13.0546875 1.7578125,13.5050391 1.7578125,14.0585742 L1.7578125,15.9414258 C1.7578125,16.4949609 2.20822266,16.9453125 2.76175781,16.9453125 L4.05943359,16.9453125 C4.46027344,16.9453125 4.81025391,17.2164844 4.91044922,17.6045508 C5.15367187,18.5470312 5.52873047,19.4505469 6.02513672,20.2899609 C6.22933594,20.6353125 6.17378906,21.0751172 5.89007812,21.3588281 L4.97080078,22.2781055 C4.57341797,22.6750195 4.58378906,23.3113477 4.97044922,23.6975391 L6.30199219,25.029082 C6.68794922,25.4155664 7.32451172,25.426875 7.72142578,25.0294336 L8.64099609,24.1098047 C8.85005859,23.9008008 9.285,23.7234375 9.70998047,23.9748047 L9.70998047,23.9748047 Z"></path>
                <path d="M15.5,22 C11.9158393,22 9,19.0841023 9,15.5 C9,11.9158977 11.9158393,9 15.5,9 C19.0841607,9 22,11.9158977 22,15.5 C22,19.0841023 19.0841607,22 15.5,22 Z M15.5,10.7504488 C12.8810368,10.7504488 10.7504488,12.8810952 10.7504488,15.5 C10.7504488,18.1189048 12.8810952,20.2495512 15.5,20.2495512 C18.1189048,20.2495512 20.2495512,18.1189048 20.2495512,15.5 C20.2495512,12.8810952 18.1189632,10.7504488 15.5,10.7504488 L15.5,10.7504488 Z"></path>
            </g>
        </g>
    </g>
</svg>
