<svg width="26px" height="26px" viewBox="0 0 26 26" version="1.1" xmlns="http://www.w3.org/2000/svg" xmlns:xlink="http://www.w3.org/1999/xlink">
    <g id="Symbols" stroke="none" stroke-width="1" fill="none" fill-rule="evenodd">
        <g id="Mi-cuenta" fill="#FFFFFF" fill-rule="nonzero">
            <g id="user" transform="translate(13.000000, 13.000000) scale(-1, 1) translate(-13.000000, -13.000000) ">
                <path d="M13,0 C5.8318,0 0,5.8318 0,13 C0,16.1395 1.11886667,19.0224667 2.97873333,21.2714667 C2.9835,21.2779667 2.98393333,21.2862 2.98913333,21.2922667 C4.33203333,22.9116333 6.01856667,24.1531333 7.89793333,24.9552333 C7.9196,24.9643333 7.94083333,24.9743 7.9625,24.9834 C8.1146,25.0475333 8.26843333,25.1069 8.4227,25.1649667 C8.48336667,25.1879333 8.54403333,25.2113333 8.60556667,25.2334333 C8.7386,25.2811 8.8725,25.3261667 9.00726667,25.3695 C9.0935,25.3972333 9.17973333,25.4245333 9.26683333,25.4505333 C9.386,25.4860667 9.5056,25.5203 9.62606667,25.5528 C9.7318,25.5814 9.8384,25.6078333 9.945,25.6334 C10.0529,25.6594 10.1612333,25.6854 10.27,25.7083667 C10.3913333,25.7343667 10.5139667,25.7573333 10.6370333,25.7798667 C10.7358333,25.7980667 10.8342,25.8171333 10.9338667,25.8331667 C11.0703667,25.8552667 11.2077333,25.8726 11.3455333,25.8903667 C11.4343667,25.9016333 11.5227667,25.9146333 11.6120333,25.9241667 C11.7680333,25.9406333 11.9253333,25.9523333 12.0830667,25.9631667 C12.1563,25.9683667 12.2291,25.9761667 12.3027667,25.9800667 C12.5328667,25.9930667 12.7655667,26 13,26 C13.2344333,26 13.4671333,25.9930667 13.6981,25.9809333 C13.7717667,25.9770333 13.8445667,25.9692333 13.9178,25.9640333 C14.0755333,25.9527667 14.2328333,25.9415 14.3888333,25.9250333 C14.4781,25.9155 14.5665,25.9025 14.6553333,25.8912333 C14.7931333,25.8734667 14.9305,25.8561333 15.067,25.8340333 C15.1662333,25.818 15.2650333,25.7989333 15.3638333,25.7807333 C15.4864667,25.7582 15.6091,25.7352333 15.7308667,25.7092333 C15.8396333,25.6858333 15.9475333,25.6602667 16.0558667,25.6342667 C16.1624667,25.6082667 16.2690667,25.5818333 16.3748,25.5536667 C16.4952667,25.5216 16.6148667,25.4869333 16.7340333,25.4514 C16.8211333,25.4254 16.9073667,25.3981 16.9936,25.3703667 C17.1283667,25.3270333 17.2622667,25.2819667 17.3953,25.2343 C17.4564,25.2122 17.5170667,25.1888 17.5781667,25.1658333 C17.7328667,25.1077667 17.8862667,25.0479667 18.0383667,24.9842667 C18.0600333,24.9751667 18.0812667,24.9652 18.1029333,24.9561 C19.9818667,24.154 21.6688333,22.9125 23.0117333,21.2931333 C23.0169333,21.2870667 23.0173667,21.2784 23.0221333,21.2723333 C24.8811333,19.0224667 26,16.1395 26,13 C26,5.8318 20.1682,0 13,0 Z M18.2680333,23.9286667 C18.2615333,23.9317 18.2554667,23.9351667 18.2489667,23.9382 C18.0942667,24.0127333 17.9369667,24.0829333 17.7783667,24.1514 C17.7424,24.1665667 17.7068667,24.1821667 17.6709,24.1973333 C17.5322333,24.2554 17.3918333,24.3104333 17.2505667,24.3633 C17.1916333,24.3854 17.1327,24.4070667 17.0733333,24.4278667 C16.9481,24.4725 16.8224333,24.5154 16.6954667,24.5561333 C16.6166,24.5812667 16.5373,24.6051 16.458,24.6285 C16.3453333,24.6623 16.2322333,24.6948 16.1178333,24.7251333 C16.0216333,24.7507 15.9245667,24.7741 15.8275,24.7970667 C15.7256667,24.8213333 15.6242667,24.8460333 15.5215667,24.8677 C15.4093333,24.8915333 15.2962333,24.9119 15.1835667,24.9322667 C15.0921333,24.9491667 15.0011333,24.9669333 14.9088333,24.9816667 C14.7818667,25.0016 14.6536,25.0176333 14.5257667,25.0336667 C14.4447333,25.0440667 14.3641333,25.0562 14.2822333,25.0648667 C14.1362,25.0804667 13.9888667,25.0904333 13.8419667,25.1008333 C13.7765333,25.1051667 13.7115333,25.1125333 13.6452333,25.116 C13.4307333,25.1272667 13.2158,25.1333333 13,25.1333333 C12.7842,25.1333333 12.5692667,25.1272667 12.3552,25.116 C12.2893333,25.1125333 12.2243333,25.1056 12.1584667,25.1008333 C12.0111333,25.0908667 11.8642333,25.0804667 11.7182,25.0648667 C11.6363,25.0562 11.5557,25.0440667 11.4746667,25.0336667 C11.3468333,25.0176333 11.2185667,25.0016 11.0916,24.9816667 C10.9993,24.9669333 10.9083,24.9491667 10.8168667,24.9322667 C10.7037667,24.9119 10.5906667,24.8911 10.4788667,24.8677 C10.3761667,24.8460333 10.2743333,24.8213333 10.1729333,24.7970667 C10.0758667,24.7736667 9.9788,24.7507 9.8826,24.7251333 C9.76863333,24.6948 9.6551,24.6618667 9.54243333,24.6285 C9.46313333,24.6051 9.38383333,24.5812667 9.30496667,24.5561333 C9.178,24.5154 9.0519,24.4725 8.9271,24.4278667 C8.86773333,24.4066333 8.8088,24.3849667 8.74986667,24.3633 C8.6086,24.3104333 8.4682,24.2554 8.32953333,24.1973333 C8.29356667,24.1826 8.25846667,24.167 8.2225,24.1518333 C8.0639,24.0838 7.9066,24.0131667 7.75146667,23.9386333 C7.74496667,23.9356 7.7389,23.9325667 7.7324,23.9291 C6.2205,23.1976333 4.88496667,22.1593667 3.8012,20.8983667 C4.63883333,17.8139 7.01003333,15.3274333 10.0607,14.3381333 C10.1209333,14.3749667 10.1837667,14.4079 10.2457333,14.4425667 C10.2821333,14.4629333 10.3181,14.4846 10.3549333,14.5041 C10.4840667,14.5725667 10.6149333,14.6367 10.7488333,14.6943333 C10.8515333,14.7394 10.9577,14.7775333 11.0634333,14.8165333 C11.0842333,14.8239 11.1050333,14.8321333 11.1258333,14.8395 C11.7134333,15.0475 12.3422,15.1666667 13,15.1666667 C13.6578,15.1666667 14.2865667,15.0475 14.8737333,14.8395 C14.8945333,14.8321333 14.9153333,14.8239 14.9361333,14.8165333 C15.0418667,14.7775333 15.1480333,14.7394 15.2507333,14.6943333 C15.3846333,14.6367 15.5155,14.5725667 15.6446333,14.5041 C15.6814667,14.4841667 15.7174333,14.4629333 15.7538333,14.4425667 C15.8158,14.4079 15.8790667,14.3749667 15.9397333,14.3377 C18.9904,15.3274333 21.3611667,17.8139 22.1992333,20.8979333 C21.1154667,22.1585 19.7799333,23.1967667 18.2680333,23.9286667 Z M8.23333333,9.53333333 C8.23333333,6.90516667 10.3718333,4.76666667 13,4.76666667 C15.6281667,4.76666667 17.7666667,6.90516667 17.7666667,9.53333333 C17.7666667,11.2051333 16.8995667,12.6763 15.5930667,13.5273667 C15.4223333,13.6383 15.2446667,13.7375333 15.0622333,13.8242 C15.0405667,13.8346 15.0193333,13.8454333 14.9976667,13.8554 C13.7427333,14.4261 12.2572667,14.4261 11.0023333,13.8554 C10.9806667,13.8454333 10.959,13.8346 10.9377667,13.8242 C10.7549,13.7375333 10.5776667,13.6383 10.4069333,13.5273667 C9.10043333,12.6763 8.23333333,11.2051333 8.23333333,9.53333333 Z M22.8492333,20.0733 C21.8668667,17.1725667 19.6256667,14.8282333 16.7622,13.7145667 C17.9075,12.6828 18.6333333,11.193 18.6333333,9.53333333 C18.6333333,6.4272 16.1061333,3.9 13,3.9 C9.89386667,3.9 7.36666667,6.4272 7.36666667,9.53333333 C7.36666667,11.193 8.0925,12.6828 9.23823333,13.7145667 C6.37476667,14.8286667 4.13356667,17.1725667 3.1512,20.0733 C1.71556667,18.0804 0.866666667,15.6381333 0.866666667,13 C0.866666667,6.30976667 6.30976667,0.866666667 13,0.866666667 C19.6902333,0.866666667 25.1333333,6.30976667 25.1333333,13 C25.1333333,15.6381333 24.2844333,18.0804 22.8492333,20.0733 Z" id="Shape"></path>
            </g>
        </g>
    </g>
</svg>
