<?xml version="1.0" encoding="UTF-8"?>
<svg width="1567px" height="899px" viewBox="0 0 1567 899" version="1.1" xmlns="http://www.w3.org/2000/svg" xmlns:xlink="http://www.w3.org/1999/xlink">
    <title>intro</title>
    <defs>
        <linearGradient x1="50%" y1="100%" x2="50%" y2="-0.0165280665%" id="linearGradient-1">
            <stop stop-color="#2A2D33" offset="0%"></stop>
            <stop stop-color="#191C22" offset="100%"></stop>
        </linearGradient>
        <rect id="path-2" x="0" y="0.551526718" width="1567" height="897"></rect>
        <linearGradient x1="50%" y1="100%" x2="50%" y2="-0.0165280665%" id="linearGradient-4">
            <stop stop-color="#000000" offset="0%"></stop>
            <stop stop-color="#191C22" offset="100%"></stop>
        </linearGradient>
    </defs>
    <g id="-" stroke="none" stroke-width="1" fill="none" fill-rule="evenodd">
        <g id="intro" transform="translate(0.000000, 0.448473)">
            <mask id="mask-3" fill="white">
                <use xlink:href="#path-2"></use>
            </mask>
            <use id="Rectangle-Copy" fill="url(#linearGradient-1)" fill-rule="nonzero" xlink:href="#path-2"></use>
            <rect id="Rectangle" fill="url(#linearGradient-1)" fill-rule="nonzero" mask="url(#mask-3)" x="0" y="0.551526718" width="1567" height="897"></rect>
            <rect id="Rectangle-Copy-2" fill="url(#linearGradient-4)" fill-rule="nonzero" mask="url(#mask-3)" x="0" y="0.551526718" width="1567" height="897"></rect>
            <g id="Group" opacity="0.481152489" mask="url(#mask-3)" stroke="#47701C" stroke-width="0.5">
                <g transform="translate(747.009409, 446.544901) rotate(-3.896113) translate(-747.009409, -446.544901) translate(-27.490591, -47.955099)" id="Path">
                    <line x1="1548.62879" y1="953.321488" x2="1486.94337" y2="964.831072"></line>
                    <line x1="1489.00939" y1="921.153676" x2="1431.16085" y2="932.073025"></line>
                    <line x1="1433.52202" y1="892.527274" x2="1378.62494" y2="902.856388"></line>
                    <line x1="1381.28125" y1="867.442283" x2="1329.33563" y2="877.181162"></line>
                    <line x1="1332.58224" y1="845.01335" x2="1283.29293" y2="853.866876"></line>
                    <line x1="1286.53953" y1="824.650239" x2="1239.31624" y2="832.618413"></line>
                    <line x1="1243.15313" y1="806.057834" x2="1197.70071" y2="813.435773"></line>
                    <line x1="1201.83275" y1="788.941017" x2="1158.15121" y2="795.72872"></line>
                    <line x1="1162.87353" y1="773.004669" x2="1120.96286" y2="778.90702"></line>
                    <line x1="1125.98034" y1="757.953675" x2="1085.84054" y2="763.26579"></line>
                    <line x1="1091.15316" y1="743.788033" x2="1052.48909" y2="748.214796"></line>
                    <line x1="1058.09686" y1="729.917508" x2="1020.61337" y2="733.458919"></line>
                    <line x1="1026.81143" y1="716.637219" x2="991.098814" y2="719.293276"></line>
                    <line x1="997.592017" y1="703.356929" x2="963.059985" y2="705.127634"></line>
                    <line x1="969.553188" y1="690.371757" x2="936.79203" y2="691.25711"></line>
                    <line x1="943.285232" y1="677.681703" x2="911.999802" y2="677.386585"></line>
                    <line x1="918.78815" y1="664.696531" x2="888.978448" y2="663.516061"></line>
                    <line x1="894.881359" y1="652.301594" x2="866.842531" y2="649.940654"></line>
                    <line x1="872.450296" y1="639.61154" x2="845.887195" y2="636.365247"></line>
                    <line x1="1486.94337" y1="964.831072" x2="1434.7026" y2="974.569951"></line>
                    <line x1="1431.16085" y1="932.073025" x2="1381.87155" y2="940.631434"></line>
                    <line x1="1378.62494" y1="902.856388" x2="1331.99194" y2="910.824562"></line>
                    <line x1="1329.33563" y1="877.181162" x2="1285.0638" y2="884.263983"></line>
                    <line x1="1283.29293" y1="853.866876" x2="1240.79196" y2="860.359462"></line>
                    <line x1="1239.31624" y1="832.618413" x2="1198.88129" y2="838.520764"></line>
                    <line x1="1197.70071" y1="813.435773" x2="1158.7415" y2="818.452771"></line>
                    <line x1="1158.15121" y1="795.72872" x2="1120.66772" y2="800.155483"></line>
                    <line x1="1120.96286" y1="778.90702" x2="1084.9551" y2="782.743548"></line>
                    <line x1="1085.84054" y1="763.26579" x2="1051.01336" y2="766.216966"></line>
                    <line x1="1052.48909" y1="748.214796" x2="1019.13764" y2="750.280618"></line>
                    <line x1="1020.61337" y1="733.458919" x2="988.73765" y2="734.934506"></line>
                    <line x1="991.098814" y1="719.293276" x2="960.403675" y2="719.588394"></line>
                    <line x1="963.059985" y1="705.127634" x2="933.840574" y2="704.832517"></line>
                    <line x1="936.79203" y1="691.25711" x2="909.048347" y2="689.781522"></line>
                    <line x1="911.999802" y1="677.386585" x2="885.731847" y2="675.025645"></line>
                    <line x1="888.978448" y1="663.516061" x2="863.891075" y2="660.269768"></line>
                    <line x1="866.842531" y1="649.940654" x2="843.230885" y2="645.513891"></line>
                    <line x1="845.887195" y1="636.365247" x2="824.046423" y2="631.053131"></line>
                    <line x1="826.112442" y1="622.78984" x2="805.452253" y2="616.592372"></line>
                    <line x1="1434.7026" y1="974.569951" x2="1391.02106" y2="982.243007"></line>
                    <line x1="1381.87155" y1="940.631434" x2="1340.55117" y2="947.419137"></line>
                    <line x1="1331.99194" y1="910.824562" x2="1292.73758" y2="916.726913"></line>
                    <line x1="1285.0638" y1="884.263983" x2="1247.58031" y2="888.985864"></line>
                    <line x1="1240.79196" y1="860.359462" x2="1205.07935" y2="864.19599"></line>
                    <line x1="1198.88129" y1="838.520764" x2="1164.64441" y2="841.767057"></line>
                    <line x1="1158.7415" y1="818.452771" x2="1125.98034" y2="821.108829"></line>
                    <line x1="1120.66772" y1="800.155483" x2="1089.38229" y2="801.926188"></line>
                    <line x1="1084.9551" y1="782.743548" x2="1054.85026" y2="783.628901"></line>
                    <line x1="1051.01336" y1="766.216966" x2="1022.0891" y2="766.512083"></line>
                    <line x1="1019.13764" y1="750.280618" x2="991.098814" y2="749.985501"></line>
                    <line x1="988.73765" y1="734.934506" x2="962.174549" y2="733.754036"></line>
                    <line x1="960.403675" y1="719.588394" x2="935.021157" y2="717.522571"></line>
                    <line x1="933.840574" y1="704.832517" x2="909.933783" y2="701.881341"></line>
                    <line x1="909.048347" y1="689.781522" x2="886.322138" y2="685.944994"></line>
                    <line x1="885.731847" y1="675.025645" x2="864.481366" y2="670.303764"></line>
                    <line x1="863.891075" y1="660.269768" x2="844.411467" y2="654.367417"></line>
                    <line x1="843.230885" y1="645.513891" x2="825.227006" y2="639.021305"></line>
                    <line x1="824.046423" y1="631.053131" x2="807.223126" y2="623.380075"></line>
                    <line x1="805.452253" y1="616.592372" x2="790.104683" y2="608.033963"></line>
                    <line x1="788.038664" y1="602.131612" x2="774.166822" y2="592.982968"></line>
                    <line x1="771.510512" y1="587.96597" x2="759.114399" y2="577.931974"></line>
                    <line x1="1391.02106" y1="982.243007" x2="1354.71815" y2="988.145358"></line>
                    <line x1="1340.55117" y1="947.419137" x2="1306.01913" y2="952.141018"></line>
                    <line x1="1292.73758" y1="916.726913" x2="1259.97643" y2="920.268323"></line>
                    <line x1="1247.58031" y1="888.985864" x2="1216.29488" y2="891.641921"></line>
                    <line x1="1205.07935" y1="864.19599" x2="1174.9745" y2="865.966695"></line>
                    <line x1="1164.64441" y1="841.767057" x2="1136.01529" y2="842.652409"></line>
                    <line x1="1125.98034" y1="821.108829" x2="1098.5318" y2="821.108829"></line>
                    <line x1="1089.38229" y1="801.926188" x2="1063.11433" y2="801.335953"></line>
                    <line x1="1054.85026" y1="783.628901" x2="1029.76288" y2="782.448431"></line>
                    <line x1="1022.0891" y1="766.512083" x2="998.182308" y2="764.446261"></line>
                    <line x1="991.098814" y1="749.985501" x2="968.372606" y2="747.034326"></line>
                    <line x1="962.174549" y1="733.754036" x2="940.628922" y2="729.917508"></line>
                    <line x1="935.021157" y1="717.522571" x2="914.656112" y2="713.095808"></line>
                    <line x1="909.933783" y1="701.881341" x2="890.749321" y2="696.274108"></line>
                    <line x1="886.322138" y1="685.944994" x2="868.613404" y2="679.747526"></line>
                    <line x1="864.481366" y1="670.303764" x2="848.543505" y2="662.925826"></line>
                    <line x1="844.411467" y1="654.367417" x2="829.654189" y2="646.104126"></line>
                    <line x1="825.227006" y1="639.021305" x2="811.945455" y2="629.872661"></line>
                    <line x1="807.223126" y1="623.380075" x2="795.712449" y2="613.346079"></line>
                    <line x1="790.104683" y1="608.033963" x2="780.069734" y2="597.114614"></line>
                    <line x1="774.166822" y1="592.982968" x2="765.607601" y2="581.178266"></line>
                    <line x1="759.114399" y1="577.931974" x2="751.735759" y2="565.537037"></line>
                    <line x1="745.242557" y1="562.880979" x2="739.339646" y2="549.895807"></line>
                    <line x1="731.961006" y1="548.125102" x2="727.828968" y2="534.254577"></line>
                    <line x1="1306.01913" y1="952.141018" x2="1276.50458" y2="955.387311"></line>
                    <line x1="1259.97643" y1="920.268323" x2="1231.9376" y2="922.039028"></line>
                    <line x1="1216.29488" y1="891.641921" x2="1189.73178" y2="892.527274"></line>
                    <line x1="1174.9745" y1="865.966695" x2="1149.88713" y2="865.671578"></line>
                    <line x1="1136.01529" y1="842.652409" x2="1111.81335" y2="841.471939"></line>
                    <line x1="1098.5318" y1="821.108829" x2="1075.51045" y2="819.043006"></line>
                    <line x1="1063.11433" y1="801.335953" x2="1040.97842" y2="798.384778"></line>
                    <line x1="1029.76288" y1="782.448431" x2="1008.80755" y2="778.611903"></line>
                    <line x1="998.182308" y1="764.446261" x2="978.407555" y2="759.72438"></line>
                    <line x1="968.372606" y1="747.034326" x2="949.778435" y2="741.72221"></line>
                    <line x1="940.628922" y1="729.917508" x2="922.920188" y2="723.72004"></line>
                    <line x1="914.656112" y1="713.095808" x2="898.423106" y2="706.012987"></line>
                    <line x1="890.749321" y1="696.274108" x2="875.992043" y2="688.601052"></line>
                    <line x1="868.613404" y1="679.747526" x2="855.331853" y2="670.893999"></line>
                    <line x1="848.543505" y1="662.925826" x2="836.737683" y2="653.186947"></line>
                    <line x1="829.654189" y1="646.104126" x2="819.61924" y2="635.479894"></line>
                    <line x1="811.945455" y1="629.872661" x2="803.681379" y2="618.067959"></line>
                    <line x1="795.712449" y1="613.346079" x2="788.628955" y2="600.951142"></line>
                    <line x1="780.069734" y1="597.114614" x2="774.461968" y2="584.129442"></line>
                    <line x1="765.607601" y1="581.178266" x2="761.475563" y2="567.307742"></line>
                    <line x1="751.735759" y1="565.537037" x2="749.079449" y2="551.076277"></line>
                    <line x1="739.339646" y1="549.895807" x2="738.454209" y2="534.549695"></line>
                    <line x1="727.828968" y1="534.254577" x2="728.41926" y2="518.613347"></line>
                    <line x1="716.613437" y1="519.203582" x2="718.679456" y2="503.267235"></line>
                    <line x1="705.693051" y1="504.447705" x2="709.529943" y2="487.921123"></line>
                    <line x1="1276.50458" y1="955.387311" x2="1250.23662" y2="957.453134"></line>
                    <line x1="1231.9376" y1="922.039028" x2="1207.14537" y2="922.629263"></line>
                    <line x1="1189.73178" y1="892.527274" x2="1166.41528" y2="891.641921"></line>
                    <line x1="1149.88713" y1="865.671578" x2="1127.45607" y2="863.605755"></line>
                    <line x1="1111.81335" y1="841.471939" x2="1090.56287" y2="838.520764"></line>
                    <line x1="1075.51045" y1="819.043006" x2="1055.44055" y2="815.206478"></line>
                    <line x1="1040.97842" y1="798.384778" x2="1022.0891" y2="793.662897"></line>
                    <line x1="1008.80755" y1="778.611903" x2="991.098814" y2="773.004669"></line>
                    <line x1="978.407555" y1="759.72438" x2="961.584258" y2="753.231794"></line>
                    <line x1="949.778435" y1="741.72221" x2="934.430865" y2="734.344271"></line>
                    <line x1="922.920188" y1="723.72004" x2="909.048347" y2="715.456748"></line>
                    <line x1="898.423106" y1="706.012987" x2="885.731847" y2="696.864343"></line>
                    <line x1="875.992043" y1="688.601052" x2="864.481366" y2="678.567056"></line>
                    <line x1="855.331853" y1="670.893999" x2="845.59205" y2="659.97465"></line>
                    <line x1="836.737683" y1="653.186947" x2="828.473607" y2="641.087128"></line>
                    <line x1="819.61924" y1="635.479894" x2="813.126037" y2="622.78984"></line>
                    <line x1="803.681379" y1="618.067959" x2="798.95905" y2="604.492552"></line>
                    <line x1="788.628955" y1="600.951142" x2="785.6775" y2="586.490382"></line>
                    <line x1="774.461968" y1="584.129442" x2="772.98624" y2="568.78333"></line>
                    <line x1="761.475563" y1="567.307742" x2="761.180418" y2="551.666512"></line>
                    <line x1="749.079449" y1="551.076277" x2="750.555177" y2="534.549695"></line>
                    <line x1="738.454209" y1="534.549695" x2="741.405665" y2="517.727995"></line>
                    <line x1="728.41926" y1="518.613347" x2="732.846443" y2="501.201412"></line>
                    <line x1="718.679456" y1="503.267235" x2="724.877513" y2="485.265065"></line>
                    <line x1="709.529943" y1="487.921123" x2="717.203728" y2="469.623835"></line>
                    <line x1="700.675576" y1="473.165246" x2="710.120234" y2="454.867958"></line>
                    <line x1="1250.23662" y1="957.453134" x2="1225.44439" y2="958.633604"></line>
                    <line x1="1207.14537" y1="922.629263" x2="1183.82887" y2="922.039028"></line>
                    <line x1="1166.41528" y1="891.641921" x2="1144.27936" y2="889.576099"></line>
                    <line x1="1127.45607" y1="863.605755" x2="1106.79588" y2="860.359462"></line>
                    <line x1="1090.56287" y1="838.520764" x2="1071.08326" y2="834.094001"></line>
                    <line x1="1055.44055" y1="815.206478" x2="1037.14152" y2="809.894362"></line>
                    <line x1="1022.0891" y1="793.662897" x2="1004.97066" y2="787.170311"></line>
                    <line x1="991.098814" y1="773.004669" x2="974.865808" y2="765.921848"></line>
                    <line x1="961.584258" y1="753.231794" x2="946.826979" y2="745.26362"></line>
                    <line x1="934.430865" y1="734.344271" x2="920.559024" y2="725.195627"></line>
                    <line x1="909.048347" y1="715.456748" x2="896.652233" y2="705.71787"></line>
                    <line x1="885.731847" y1="696.864343" x2="874.811461" y2="686.240112"></line>
                    <line x1="864.481366" y1="678.567056" x2="855.036708" y2="666.762354"></line>
                    <line x1="845.59205" y1="659.97465" x2="837.918265" y2="646.989479"></line>
                    <line x1="828.473607" y1="641.087128" x2="822.865841" y2="627.511721"></line>
                    <line x1="813.126037" y1="622.78984" x2="809.289145" y2="608.033963"></line>
                    <line x1="798.95905" y1="604.492552" x2="796.597886" y2="588.851323"></line>
                    <line x1="785.6775" y1="586.490382" x2="785.087208" y2="569.9638"></line>
                    <line x1="772.98624" y1="568.78333" x2="774.166822" y2="551.666512"></line>
                    <line x1="761.180418" y1="551.666512" x2="763.836728" y2="533.664342"></line>
                    <line x1="750.555177" y1="534.549695" x2="754.392069" y2="516.252407"></line>
                    <line x1="741.405665" y1="517.727995" x2="747.01343" y2="498.840472"></line>
                    <line x1="732.846443" y1="501.201412" x2="740.520228" y2="482.018772"></line>
                    <line x1="724.877513" y1="485.265065" x2="734.027025" y2="465.787307"></line>
                    <line x1="717.203728" y1="469.623835" x2="728.124114" y2="450.146077"></line>
                    <line x1="710.120234" y1="454.867958" x2="722.516348" y2="435.095083"></line>
                    <line x1="703.331886" y1="440.407199" x2="717.203728" y2="420.634323"></line>
                    <line x1="696.543538" y1="426.536674" x2="711.595962" y2="406.763799"></line>
                    <line x1="1225.44439" y1="958.633604" x2="1199.47158" y2="959.814074"></line>
                    <line x1="1183.82887" y1="922.039028" x2="1159.62693" y2="921.153676"></line>
                    <line x1="1144.27936" y1="889.576099" x2="1121.55315" y2="887.215158"></line>
                    <line x1="1106.79588" y1="860.359462" x2="1085.5454" y2="856.522934"></line>
                    <line x1="1071.08326" y1="834.094001" x2="1051.30851" y2="829.077002"></line>
                    <line x1="1037.14152" y1="809.894362" x2="1018.54735" y2="803.696894"></line>
                    <line x1="1004.97066" y1="787.170311" x2="987.852213" y2="780.08749"></line>
                    <line x1="974.865808" y1="765.921848" x2="959.223093" y2="757.658557"></line>
                    <line x1="946.826979" y1="745.26362" x2="932.364846" y2="736.114976"></line>
                    <line x1="920.559024" y1="725.195627" x2="907.572619" y2="715.161631"></line>
                    <line x1="896.652233" y1="705.71787" x2="884.84641" y2="694.503403"></line>
                    <line x1="874.811461" y1="686.240112" x2="864.481366" y2="674.140292"></line>
                    <line x1="855.036708" y1="666.762354" x2="846.477486" y2="653.482064"></line>
                    <line x1="837.918265" y1="646.989479" x2="831.129917" y2="632.823836"></line>
                    <line x1="822.865841" y1="627.511721" x2="818.143512" y2="612.165608"></line>
                    <line x1="809.289145" y1="608.033963" x2="806.337689" y2="591.50738"></line>
                    <line x1="796.597886" y1="588.851323" x2="795.712449" y2="571.439388"></line>
                    <line x1="785.087208" y1="569.9638" x2="785.972645" y2="551.96163"></line>
                    <line x1="774.166822" y1="551.666512" x2="776.527987" y2="533.074107"></line>
                    <line x1="763.836728" y1="533.664342" x2="767.67362" y2="514.481702"></line>
                    <line x1="754.392069" y1="516.252407" x2="759.999835" y2="496.479532"></line>
                    <line x1="747.01343" y1="498.840472" x2="754.392069" y2="478.772479"></line>
                    <line x1="740.520228" y1="482.018772" x2="749.374595" y2="461.360544"></line>
                    <line x1="734.027025" y1="465.787307" x2="744.652266" y2="444.833962"></line>
                    <line x1="728.124114" y1="450.146077" x2="740.225082" y2="428.897614"></line>
                    <line x1="722.516348" y1="435.095083" x2="736.093044" y2="413.84662"></line>
                    <line x1="717.203728" y1="420.634323" x2="732.256152" y2="399.680978"></line>
                    <line x1="711.595962" y1="406.763799" x2="728.41926" y2="386.105571"></line>
                    <line x1="706.283342" y1="393.778627" x2="723.992076" y2="373.415516"></line>
                    <line x1="1199.47158" y1="959.814074" x2="1169.66188" y2="961.584779"></line>
                    <line x1="1159.62693" y1="921.153676" x2="1131.88325" y2="920.858558"></line>
                    <line x1="1121.55315" y1="887.215158" x2="1095.87549" y2="884.854218"></line>
                    <line x1="1085.5454" y1="856.522934" x2="1061.6386" y2="852.686406"></line>
                    <line x1="1051.30851" y1="829.077002" x2="1028.87745" y2="823.764887"></line>
                    <line x1="1018.54735" y1="803.696894" x2="997.887162" y2="797.204308"></line>
                    <line x1="987.852213" y1="780.08749" x2="968.667751" y2="772.414434"></line>
                    <line x1="959.223093" y1="757.658557" x2="941.514359" y2="748.805031"></line>
                    <line x1="932.364846" y1="736.114976" x2="916.426986" y2="726.376098"></line>
                    <line x1="907.572619" y1="715.161631" x2="893.110486" y2="704.242282"></line>
                    <line x1="884.84641" y1="694.503403" x2="872.155151" y2="682.698701"></line>
                    <line x1="864.481366" y1="674.140292" x2="853.265834" y2="661.155121"></line>
                    <line x1="846.477486" y1="653.482064" x2="836.737683" y2="639.906657"></line>
                    <line x1="831.129917" y1="632.823836" x2="823.456132" y2="617.772842"></line>
                    <line x1="818.143512" y1="612.165608" x2="812.535746" y2="595.934144"></line>
                    <line x1="806.337689" y1="591.50738" x2="803.091088" y2="574.390563"></line>
                    <line x1="795.712449" y1="571.439388" x2="794.236721" y2="553.437217"></line>
                    <line x1="785.972645" y1="551.96163" x2="786.267791" y2="533.074107"></line>
                    <line x1="776.527987" y1="533.074107" x2="778.594006" y2="513.301232"></line>
                    <line x1="767.67362" y1="514.481702" x2="771.215367" y2="494.413709"></line>
                    <line x1="759.999835" y1="496.479532" x2="765.01731" y2="475.821304"></line>
                    <line x1="754.392069" y1="478.772479" x2="761.475563" y2="457.524016"></line>
                    <line x1="749.374595" y1="461.360544" x2="758.228962" y2="439.816963"></line>
                    <line x1="744.652266" y1="444.833962" x2="755.277506" y2="422.995264"></line>
                    <line x1="740.225082" y1="428.897614" x2="752.326051" y2="407.058916"></line>
                    <line x1="736.093044" y1="413.84662" x2="749.964886" y2="392.007922"></line>
                    <line x1="732.256152" y1="399.680978" x2="747.308576" y2="377.84228"></line>
                    <line x1="728.41926" y1="386.105571" x2="744.652266" y2="364.266873"></line>
                    <line x1="723.992076" y1="373.415516" x2="741.70081" y2="351.871936"></line>
                    <line x1="719.860038" y1="361.315697" x2="738.749354" y2="340.362352"></line>
                    <line x1="715.137709" y1="350.10123" x2="735.207608" y2="329.443002"></line>
                    <line x1="1169.66188" y1="961.584779" x2="1133.94927" y2="964.240837"></line>
                    <line x1="1131.88325" y1="920.858558" x2="1099.12209" y2="921.448793"></line>
                    <line x1="1095.87549" y1="884.854218" x2="1065.4755" y2="883.37863"></line>
                    <line x1="1061.6386" y1="852.686406" x2="1033.30463" y2="849.73523"></line>
                    <line x1="1028.87745" y1="823.764887" x2="1002.90464" y2="819.338123"></line>
                    <line x1="997.887162" y1="797.204308" x2="973.980371" y2="791.301957"></line>
                    <line x1="968.667751" y1="772.414434" x2="946.531834" y2="765.331613"></line>
                    <line x1="941.514359" y1="748.805031" x2="921.149315" y2="740.54174"></line>
                    <line x1="916.426986" y1="726.376098" x2="897.53767" y2="716.637219"></line>
                    <line x1="893.110486" y1="704.242282" x2="875.992043" y2="693.61805"></line>
                    <line x1="872.155151" y1="682.698701" x2="856.807581" y2="670.893999"></line>
                    <line x1="853.265834" y1="661.155121" x2="839.689138" y2="648.169949"></line>
                    <line x1="836.737683" y1="639.906657" x2="824.93186" y2="625.741015"></line>
                    <line x1="823.456132" y1="617.772842" x2="813.716328" y2="602.721847"></line>
                    <line x1="812.535746" y1="595.934144" x2="804.861961" y2="579.407561"></line>
                    <line x1="803.091088" y1="574.390563" x2="797.483322" y2="556.68351"></line>
                    <line x1="794.236721" y1="553.437217" x2="790.694974" y2="534.844812"></line>
                    <line x1="786.267791" y1="533.074107" x2="784.496917" y2="513.596349"></line>
                    <line x1="778.594006" y1="513.301232" x2="778.29886" y2="493.233239"></line>
                    <line x1="771.215367" y1="494.413709" x2="772.691095" y2="473.460363"></line>
                    <line x1="765.01731" y1="475.821304" x2="768.263911" y2="454.572841"></line>
                    <line x1="761.475563" y1="457.524016" x2="766.493038" y2="435.685318"></line>
                    <line x1="758.228962" y1="439.816963" x2="765.01731" y2="417.683148"></line>
                    <line x1="755.277506" y1="422.995264" x2="763.836728" y2="400.56633"></line>
                    <line x1="752.326051" y1="407.058916" x2="762.656145" y2="384.334865"></line>
                    <line x1="749.964886" y1="392.007922" x2="761.770709" y2="369.283871"></line>
                    <line x1="747.308576" y1="377.84228" x2="760.885272" y2="355.118229"></line>
                    <line x1="744.652266" y1="364.266873" x2="759.409544" y2="341.837939"></line>
                    <line x1="741.70081" y1="351.871936" x2="757.933816" y2="329.73812"></line>
                    <line x1="738.749354" y1="340.362352" x2="756.162943" y2="318.523653"></line>
                    <line x1="735.207608" y1="329.443002" x2="753.506633" y2="308.194539"></line>
                    <line x1="731.07557" y1="319.704124" x2="750.555177" y2="298.750778"></line>
                    <line x1="1133.94927" y1="964.240837" x2="1089.97258" y2="968.962718"></line>
                    <line x1="1099.12209" y1="921.448793" x2="1058.392" y2="923.514616"></line>
                    <line x1="1065.4755" y1="883.37863" x2="1027.99201" y2="883.673748"></line>
                    <line x1="1033.30463" y1="849.73523" x2="998.772599" y2="848.259643"></line>
                    <line x1="1002.90464" y1="819.338123" x2="970.73377" y2="816.091831"></line>
                    <line x1="973.980371" y1="791.301957" x2="944.170669" y2="786.580076"></line>
                    <line x1="946.531834" y1="765.331613" x2="918.78815" y2="759.134145"></line>
                    <line x1="921.149315" y1="740.54174" x2="895.471651" y2="733.163801"></line>
                    <line x1="897.53767" y1="716.637219" x2="873.926024" y2="708.07881"></line>
                    <line x1="875.992043" y1="693.61805" x2="854.446417" y2="683.879171"></line>
                    <line x1="856.807581" y1="670.893999" x2="837.032828" y2="659.679533"></line>
                    <line x1="839.689138" y1="648.169949" x2="821.685259" y2="636.070129"></line>
                    <line x1="824.93186" y1="625.741015" x2="808.698854" y2="612.165608"></line>
                    <line x1="813.716328" y1="602.721847" x2="799.549341" y2="587.96597"></line>
                    <line x1="804.861961" y1="579.407561" x2="792.760993" y2="563.471214"></line>
                    <line x1="797.483322" y1="556.68351" x2="787.448373" y2="539.566693"></line>
                    <line x1="790.694974" y1="534.844812" x2="782.726044" y2="516.547525"></line>
                    <line x1="784.496917" y1="513.596349" x2="778.594006" y2="494.413709"></line>
                    <line x1="778.29886" y1="493.233239" x2="774.166822" y2="473.165246"></line>
                    <line x1="772.691095" y1="473.460363" x2="770.32993" y2="452.802135"></line>
                    <line x1="768.263911" y1="454.572841" x2="767.67362" y2="433.02926"></line>
                    <line x1="766.493038" y1="435.685318" x2="767.67362" y2="413.551502"></line>
                    <line x1="765.01731" y1="417.683148" x2="768.263911" y2="394.959097"></line>
                    <line x1="763.836728" y1="400.56633" x2="768.854202" y2="377.547162"></line>
                    <line x1="762.656145" y1="384.334865" x2="769.739639" y2="361.02058"></line>
                    <line x1="761.770709" y1="369.283871" x2="770.32993" y2="345.969585"></line>
                    <line x1="760.885272" y1="355.118229" x2="770.920221" y2="331.803943"></line>
                    <line x1="759.409544" y1="341.837939" x2="771.215367" y2="318.818771"></line>
                    <line x1="757.933816" y1="329.73812" x2="771.215367" y2="306.718952"></line>
                    <line x1="756.162943" y1="318.523653" x2="770.32993" y2="295.799603"></line>
                    <line x1="753.506633" y1="308.194539" x2="769.149348" y2="286.060724"></line>
                    <line x1="750.555177" y1="298.750778" x2="767.378474" y2="277.207197"></line>
                    <line x1="746.718285" y1="290.192369" x2="764.427019" y2="269.239024"></line>
                    <line x1="1058.392" y1="923.514616" x2="1009.10269" y2="928.531614"></line>
                    <line x1="1027.99201" y1="883.673748" x2="982.244447" y2="886.624923"></line>
                    <line x1="998.772599" y1="848.259643" x2="956.271637" y2="849.144995"></line>
                    <line x1="970.73377" y1="816.091831" x2="931.184264" y2="815.501595"></line>
                    <line x1="944.170669" y1="786.580076" x2="907.277473" y2="784.219136"></line>
                    <line x1="918.78815" y1="759.134145" x2="884.551265" y2="755.297617"></line>
                    <line x1="895.471651" y1="733.163801" x2="863.595929" y2="727.851685"></line>
                    <line x1="873.926024" y1="708.07881" x2="844.116322" y2="701.291106"></line>
                    <line x1="854.446417" y1="683.879171" x2="826.702733" y2="675.61588"></line>
                    <line x1="837.032828" y1="659.679533" x2="811.060018" y2="650.235771"></line>
                    <line x1="821.685259" y1="636.070129" x2="797.778468" y2="625.15078"></line>
                    <line x1="808.698854" y1="612.165608" x2="786.562936" y2="600.360907"></line>
                    <line x1="799.549341" y1="587.96597" x2="779.479443" y2="574.390563"></line>
                    <line x1="792.760993" y1="563.471214" x2="774.757114" y2="548.715337"></line>
                    <line x1="787.448373" y1="539.566693" x2="771.510512" y2="523.630346"></line>
                    <line x1="782.726044" y1="516.547525" x2="768.854202" y2="499.13559"></line>
                    <line x1="778.594006" y1="494.413709" x2="766.788183" y2="475.821304"></line>
                    <line x1="774.166822" y1="473.165246" x2="764.427019" y2="453.687488"></line>
                    <line x1="770.32993" y1="452.802135" x2="762.656145" y2="432.439025"></line>
                    <line x1="767.67362" y1="433.02926" x2="761.770709" y2="411.780797"></line>
                    <line x1="767.67362" y1="413.551502" x2="764.131873" y2="391.417686"></line>
                    <line x1="768.263911" y1="394.959097" x2="766.788183" y2="372.235046"></line>
                    <line x1="768.854202" y1="377.547162" x2="769.444493" y2="354.232876"></line>
                    <line x1="769.739639" y1="361.02058" x2="772.100804" y2="337.411176"></line>
                    <line x1="770.32993" y1="345.969585" x2="774.461968" y2="322.065064"></line>
                    <line x1="770.920221" y1="331.803943" x2="776.823133" y2="307.899422"></line>
                    <line x1="771.215367" y1="318.818771" x2="778.594006" y2="294.619132"></line>
                    <line x1="771.215367" y1="306.718952" x2="780.069734" y2="282.814431"></line>
                    <line x1="770.32993" y1="295.799603" x2="780.955171" y2="272.190199"></line>
                    <line x1="769.149348" y1="286.060724" x2="780.955171" y2="262.746438"></line>
                    <line x1="767.378474" y1="277.207197" x2="780.364879" y2="254.483147"></line>
                    <line x1="764.427019" y1="269.239024" x2="778.594006" y2="246.810091"></line>
                    <line x1="760.885272" y1="261.861085" x2="775.937696" y2="240.022387"></line>
                    <line x1="1009.10269" y1="928.531614" x2="950.368726" y2="935.909553"></line>
                    <line x1="982.244447" y1="886.624923" x2="927.642517" y2="891.937039"></line>
                    <line x1="956.271637" y1="849.144995" x2="905.5066" y2="852.686406"></line>
                    <line x1="931.184264" y1="815.501595" x2="883.665828" y2="817.272301"></line>
                    <line x1="907.277473" y1="784.219136" x2="862.710493" y2="784.514253"></line>
                    <line x1="884.551265" y1="755.297617" x2="842.93574" y2="753.822029"></line>
                    <line x1="863.595929" y1="727.851685" x2="824.341569" y2="724.90051"></line>
                    <line x1="844.116322" y1="701.291106" x2="807.223126" y2="696.864343"></line>
                    <line x1="826.702733" y1="675.61588" x2="791.875557" y2="669.713529"></line>
                    <line x1="811.060018" y1="650.235771" x2="778.594006" y2="643.15295"></line>
                    <line x1="797.778468" y1="625.15078" x2="767.083329" y2="616.592372"></line>
                    <line x1="786.562936" y1="600.360907" x2="757.638671" y2="590.32691"></line>
                    <line x1="779.479443" y1="574.390563" x2="752.621196" y2="562.880979"></line>
                    <line x1="774.757114" y1="548.715337" x2="749.66974" y2="535.730165"></line>
                    <line x1="771.510512" y1="523.630346" x2="748.489158" y2="509.169586"></line>
                    <line x1="768.854202" y1="499.13559" x2="748.194013" y2="483.49436"></line>
                    <line x1="766.788183" y1="475.821304" x2="748.194013" y2="458.704486"></line>
                    <line x1="764.427019" y1="453.687488" x2="747.898867" y2="435.3902"></line>
                    <line x1="762.656145" y1="432.439025" x2="748.194013" y2="412.961267"></line>
                    <line x1="761.770709" y1="411.780797" x2="749.66974" y2="391.417686"></line>
                    <line x1="764.131873" y1="391.417686" x2="754.392069" y2="369.874106"></line>
                    <line x1="766.788183" y1="372.235046" x2="759.114399" y2="349.806113"></line>
                    <line x1="769.444493" y1="354.232876" x2="763.836728" y2="331.213708"></line>
                    <line x1="772.100804" y1="337.411176" x2="768.559057" y2="313.801773"></line>
                    <line x1="774.461968" y1="322.065064" x2="773.281386" y2="297.865425"></line>
                    <line x1="776.823133" y1="307.899422" x2="777.413424" y2="283.109548"></line>
                    <line x1="778.594006" y1="294.619132" x2="781.250316" y2="270.124376"></line>
                    <line x1="780.069734" y1="282.814431" x2="784.201772" y2="258.319675"></line>
                    <line x1="780.955171" y1="272.190199" x2="786.562936" y2="247.695443"></line>
                    <line x1="780.955171" y1="262.746438" x2="788.33381" y2="238.251682"></line>
                    <line x1="780.364879" y1="254.483147" x2="788.924101" y2="230.283508"></line>
                    <line x1="778.594006" y1="246.810091" x2="788.33381" y2="223.200687"></line>
                    <line x1="775.937696" y1="240.022387" x2="786.858082" y2="216.708101"></line>
                    <line x1="772.395949" y1="234.120036" x2="784.496917" y2="211.395985"></line>
                    <line x1="950.368726" y1="935.909553" x2="822.570695" y2="950.075195"></line>
                    <line x1="927.642517" y1="891.937039" x2="865.366803" y2="900.20033"></line>
                    <line x1="905.5066" y1="852.686406" x2="847.067778" y2="859.178992"></line>
                    <line x1="883.665828" y1="817.272301" x2="829.063898" y2="821.994181"></line>
                    <line x1="862.710493" y1="784.514253" x2="811.355164" y2="787.465429"></line>
                    <line x1="842.93574" y1="753.822029" x2="794.236721" y2="755.002499"></line>
                    <line x1="824.341569" y1="724.90051" x2="778.29886" y2="724.605392"></line>
                    <line x1="807.223126" y1="696.864343" x2="763.541582" y2="695.093638"></line>
                    <line x1="791.875557" y1="669.713529" x2="750.260032" y2="666.172119"></line>
                    <line x1="778.594006" y1="643.15295" x2="738.749354" y2="637.840835"></line>
                    <line x1="767.083329" y1="616.592372" x2="729.304696" y2="610.099786"></line>
                    <line x1="757.638671" y1="590.32691" x2="721.630912" y2="582.358737"></line>
                    <line x1="752.621196" y1="562.880979" x2="718.38431" y2="553.437217"></line>
                    <line x1="749.66974" y1="535.730165" x2="717.794019" y2="524.810816"></line>
                    <line x1="748.489158" y1="509.169586" x2="718.679456" y2="496.479532"></line>
                    <line x1="748.194013" y1="483.49436" x2="720.450329" y2="469.0336"></line>
                    <line x1="748.194013" y1="458.704486" x2="722.811494" y2="442.768139"></line>
                    <line x1="747.898867" y1="435.3902" x2="724.877513" y2="417.978265"></line>
                    <line x1="748.194013" y1="412.961267" x2="727.238677" y2="394.368862"></line>
                    <line x1="749.66974" y1="391.417686" x2="731.07557" y2="371.349694"></line>
                    <line x1="754.392069" y1="369.874106" x2="738.159063" y2="348.625643"></line>
                    <line x1="759.114399" y1="349.806113" x2="745.242557" y2="327.37718"></line>
                    <line x1="763.836728" y1="331.213708" x2="752.621196" y2="307.899422"></line>
                    <line x1="768.559057" y1="313.801773" x2="759.70469" y2="289.602134"></line>
                    <line x1="773.281386" y1="297.865425" x2="766.493038" y2="273.075552"></line>
                    <line x1="777.413424" y1="283.109548" x2="772.98624" y2="258.024557"></line>
                    <line x1="781.250316" y1="270.124376" x2="778.594006" y2="244.44915"></line>
                    <line x1="784.201772" y1="258.319675" x2="783.611481" y2="232.349331"></line>
                    <line x1="786.562936" y1="247.695443" x2="787.743519" y2="221.725099"></line>
                    <line x1="788.33381" y1="238.251682" x2="790.99012" y2="212.576456"></line>
                    <line x1="788.924101" y1="230.283508" x2="793.056139" y2="204.608282"></line>
                    <line x1="788.33381" y1="223.200687" x2="793.941575" y2="197.525461"></line>
                    <line x1="786.858082" y1="216.708101" x2="793.64643" y2="191.62311"></line>
                    <line x1="784.496917" y1="211.395985" x2="792.465848" y2="186.606112"></line>
                    <line x1="865.366803" y1="900.20033" x2="796.597886" y2="911.119679"></line>
                    <line x1="847.067778" y1="859.178992" x2="782.430898" y2="868.032518"></line>
                    <line x1="829.063898" y1="821.994181" x2="767.968766" y2="828.781885"></line>
                    <line x1="811.355164" y1="787.465429" x2="753.801778" y2="792.482427"></line>
                    <line x1="794.236721" y1="755.002499" x2="739.634791" y2="758.54391"></line>
                    <line x1="778.29886" y1="724.605392" x2="726.648386" y2="726.08098"></line>
                    <line x1="763.541582" y1="695.093638" x2="714.547418" y2="694.79852"></line>
                    <line x1="750.260032" y1="666.172119" x2="703.627032" y2="664.106296"></line>
                    <line x1="738.749354" y1="637.840835" x2="694.477519" y2="634.299424"></line>
                    <line x1="729.304696" y1="610.099786" x2="687.09888" y2="604.492552"></line>
                    <line x1="721.630912" y1="582.358737" x2="681.78626" y2="574.980798"></line>
                    <line x1="718.38431" y1="553.437217" x2="680.605678" y2="544.288574"></line>
                    <line x1="717.794019" y1="524.810816" x2="682.081406" y2="513.891467"></line>
                    <line x1="718.679456" y1="496.479532" x2="685.032861" y2="483.789477"></line>
                    <line x1="720.450329" y1="469.0336" x2="689.164899" y2="454.867958"></line>
                    <line x1="722.811494" y1="442.768139" x2="693.592083" y2="426.831792"></line>
                    <line x1="724.877513" y1="417.978265" x2="697.724121" y2="400.56633"></line>
                    <line x1="727.238677" y1="394.368862" x2="702.44645" y2="375.186222"></line>
                    <line x1="731.07557" y1="371.349694" x2="708.644507" y2="350.691466"></line>
                    <line x1="738.159063" y1="348.625643" x2="717.794019" y2="326.786945"></line>
                    <line x1="745.242557" y1="327.37718" x2="727.533823" y2="304.358011"></line>
                    <line x1="752.621196" y1="307.899422" x2="736.978481" y2="283.699783"></line>
                    <line x1="759.70469" y1="289.602134" x2="746.423139" y2="264.517143"></line>
                    <line x1="766.493038" y1="273.075552" x2="755.277506" y2="247.400326"></line>
                    <line x1="772.98624" y1="258.024557" x2="763.836728" y2="231.463978"></line>
                    <line x1="778.594006" y1="244.44915" x2="771.510512" y2="217.593454"></line>
                    <line x1="783.611481" y1="232.349331" x2="778.29886" y2="205.198517"></line>
                    <line x1="787.743519" y1="221.725099" x2="784.201772" y2="194.279168"></line>
                    <line x1="790.99012" y1="212.576456" x2="788.924101" y2="185.130524"></line>
                    <line x1="793.056139" y1="204.608282" x2="792.760993" y2="176.867233"></line>
                    <line x1="793.941575" y1="197.525461" x2="795.122158" y2="170.079529"></line>
                    <line x1="793.64643" y1="191.62311" x2="796.30274" y2="164.472296"></line>
                    <line x1="792.465848" y1="186.606112" x2="796.30274" y2="159.750415"></line>
                    <line x1="796.597886" y1="911.119679" x2="723.401785" y2="923.514616"></line>
                    <line x1="782.430898" y1="868.032518" x2="713.07169" y2="878.951867"></line>
                    <line x1="767.968766" y1="828.781885" x2="702.44645" y2="837.930529"></line>
                    <line x1="753.801778" y1="792.482427" x2="691.526064" y2="799.565248"></line>
                    <line x1="739.634791" y1="758.54391" x2="680.900823" y2="763.26579"></line>
                    <line x1="726.648386" y1="726.08098" x2="670.570728" y2="729.032155"></line>
                    <line x1="714.547418" y1="694.79852" x2="661.421216" y2="695.683873"></line>
                    <line x1="703.627032" y1="664.106296" x2="653.15714" y2="662.925826"></line>
                    <line x1="694.477519" y1="634.299424" x2="646.663937" y2="631.053131"></line>
                    <line x1="687.09888" y1="604.492552" x2="641.646463" y2="599.180437"></line>
                    <line x1="681.78626" y1="574.980798" x2="638.399862" y2="567.897977"></line>
                    <line x1="680.605678" y1="544.288574" x2="639.580444" y2="535.435047"></line>
                    <line x1="682.081406" y1="513.891467" x2="643.122191" y2="502.677"></line>
                    <line x1="685.032861" y1="483.789477" x2="648.139665" y2="470.804305"></line>
                    <line x1="689.164899" y1="454.867958" x2="654.632868" y2="440.112081"></line>
                    <line x1="693.592083" y1="426.831792" x2="661.12607" y2="410.305209"></line>
                    <line x1="697.724121" y1="400.56633" x2="667.619273" y2="382.269043"></line>
                    <line x1="702.44645" y1="375.186222" x2="674.407621" y2="355.413346"></line>
                    <line x1="708.644507" y1="350.691466" x2="682.671697" y2="329.73812"></line>
                    <line x1="717.794019" y1="326.786945" x2="694.182374" y2="304.358011"></line>
                    <line x1="727.533823" y1="304.358011" x2="705.693051" y2="280.748608"></line>
                    <line x1="736.978481" y1="283.699783" x2="717.498874" y2="258.90991"></line>
                    <line x1="746.423139" y1="264.517143" x2="728.714405" y2="238.841917"></line>
                    <line x1="755.277506" y1="247.400326" x2="739.634791" y2="220.544629"></line>
                    <line x1="763.836728" y1="231.463978" x2="750.260032" y2="204.018047"></line>
                    <line x1="771.510512" y1="217.593454" x2="759.999835" y2="189.557287"></line>
                    <line x1="778.29886" y1="205.198517" x2="768.559057" y2="176.572115"></line>
                    <line x1="784.201772" y1="194.279168" x2="776.232841" y2="165.357649"></line>
                    <line x1="788.924101" y1="185.130524" x2="783.021189" y2="155.61877"></line>
                    <line x1="792.760993" y1="176.867233" x2="788.33381" y2="147.650596"></line>
                    <line x1="795.122158" y1="170.079529" x2="792.465848" y2="140.862893"></line>
                    <line x1="796.30274" y1="164.472296" x2="795.417303" y2="135.255659"></line>
                    <line x1="796.30274" y1="159.750415" x2="796.597886" y2="130.533779"></line>
                    <line x1="723.401785" y1="923.514616" x2="647.84452" y2="937.090023"></line>
                    <line x1="713.07169" y1="878.951867" x2="641.646463" y2="890.756569"></line>
                    <line x1="702.44645" y1="837.930529" x2="634.267824" y2="847.669408"></line>
                    <line x1="691.526064" y1="799.565248" x2="626.889184" y2="807.238304"></line>
                    <line x1="680.900823" y1="763.26579" x2="619.510545" y2="768.873024"></line>
                    <line x1="670.570728" y1="729.032155" x2="612.427052" y2="731.983331"></line>
                    <line x1="661.421216" y1="695.683873" x2="605.933849" y2="696.569226"></line>
                    <line x1="653.15714" y1="662.925826" x2="600.621229" y2="661.745356"></line>
                    <line x1="646.663937" y1="631.053131" x2="596.784337" y2="627.511721"></line>
                    <line x1="641.646463" y1="599.180437" x2="594.423172" y2="593.573203"></line>
                    <line x1="638.399862" y1="567.897977" x2="593.537735" y2="559.929803"></line>
                    <line x1="639.580444" y1="535.435047" x2="597.079482" y2="525.105933"></line>
                    <line x1="643.122191" y1="502.677" x2="603.277539" y2="490.282063"></line>
                    <line x1="648.139665" y1="470.804305" x2="610.656178" y2="456.638663"></line>
                    <line x1="654.632868" y1="440.112081" x2="619.2154" y2="423.585499"></line>
                    <line x1="661.12607" y1="410.305209" x2="628.069767" y2="392.303039"></line>
                    <line x1="667.619273" y1="382.269043" x2="636.628988" y2="362.496167"></line>
                    <line x1="674.407621" y1="355.413346" x2="645.18821" y2="334.164883"></line>
                    <line x1="682.671697" y1="329.73812" x2="655.518305" y2="307.014069"></line>
                    <line x1="694.182374" y1="304.358011" x2="668.799855" y2="280.158373"></line>
                    <line x1="705.693051" y1="280.748608" x2="682.376551" y2="255.368499"></line>
                    <line x1="717.498874" y1="258.90991" x2="695.953247" y2="232.349331"></line>
                    <line x1="728.714405" y1="238.841917" x2="709.234798" y2="211.395985"></line>
                    <line x1="739.634791" y1="220.544629" x2="721.926057" y2="192.213345"></line>
                    <line x1="750.260032" y1="204.018047" x2="734.322171" y2="174.80141"></line>
                    <line x1="759.999835" y1="189.557287" x2="745.832848" y2="159.455298"></line>
                    <line x1="768.559057" y1="176.572115" x2="756.162943" y2="146.175008"></line>
                    <line x1="776.232841" y1="165.357649" x2="765.607601" y2="134.370307"></line>
                    <line x1="783.021189" y1="155.61877" x2="774.166822" y2="124.33631"></line>
                    <line x1="788.33381" y1="147.650596" x2="781.250316" y2="116.073019"></line>
                    <line x1="792.465848" y1="140.862893" x2="787.153227" y2="108.990198"></line>
                    <line x1="795.417303" y1="135.255659" x2="791.580411" y2="103.382965"></line>
                    <line x1="796.597886" y1="130.533779" x2="794.531867" y2="98.9562016"></line>
                    <line x1="641.646463" y1="890.756569" x2="569.040653" y2="902.561271"></line>
                    <line x1="634.267824" y1="847.669408" x2="565.203761" y2="857.408287"></line>
                    <line x1="626.889184" y1="807.238304" x2="560.776577" y2="814.91136"></line>
                    <line x1="619.510545" y1="768.873024" x2="556.349394" y2="774.480257"></line>
                    <line x1="612.427052" y1="731.983331" x2="551.92221" y2="735.229624"></line>
                    <line x1="605.933849" y1="696.569226" x2="548.380464" y2="697.454578"></line>
                    <line x1="600.621229" y1="661.745356" x2="545.724154" y2="660.269768"></line>
                    <line x1="596.784337" y1="627.511721" x2="544.543571" y2="623.675193"></line>
                    <line x1="594.423172" y1="593.573203" x2="544.543571" y2="587.375735"></line>
                    <line x1="593.537735" y1="559.929803" x2="546.314445" y2="551.371395"></line>
                    <line x1="597.079482" y1="525.105933" x2="552.217356" y2="514.186584"></line>
                    <line x1="603.277539" y1="490.282063" x2="560.481432" y2="477.592009"></line>
                    <line x1="610.656178" y1="456.638663" x2="570.221236" y2="441.292551"></line>
                    <line x1="619.2154" y1="423.585499" x2="581.141622" y2="406.468681"></line>
                    <line x1="628.069767" y1="392.303039" x2="592.062008" y2="373.120399"></line>
                    <line x1="636.628988" y1="362.496167" x2="602.982394" y2="341.542822"></line>
                    <line x1="645.18821" y1="334.164883" x2="613.90278" y2="311.440832"></line>
                    <line x1="655.518305" y1="307.014069" x2="626.298893" y2="282.519313"></line>
                    <line x1="668.799855" y1="280.158373" x2="641.646463" y2="254.483147"></line>
                    <line x1="682.376551" y1="255.368499" x2="657.289178" y2="228.217685"></line>
                    <line x1="695.953247" y1="232.349331" x2="672.636747" y2="204.018047"></line>
                    <line x1="709.234798" y1="211.395985" x2="687.984317" y2="181.884231"></line>
                    <line x1="721.926057" y1="192.213345" x2="702.741595" y2="161.816238"></line>
                    <line x1="734.322171" y1="174.80141" x2="716.908582" y2="143.518951"></line>
                    <line x1="745.832848" y1="159.455298" x2="730.485279" y2="127.582603"></line>
                    <line x1="756.162943" y1="146.175008" x2="742.881392" y2="113.416961"></line>
                    <line x1="765.607601" y1="134.370307" x2="754.096924" y2="101.317142"></line>
                    <line x1="774.166822" y1="124.33631" x2="764.131873" y2="90.9880279"></line>
                    <line x1="781.250316" y1="116.073019" x2="772.98624" y2="82.1345016"></line>
                    <line x1="787.153227" y1="108.990198" x2="780.364879" y2="75.0516806"></line>
                    <line x1="791.580411" y1="103.382965" x2="786.562936" y2="69.4444473"></line>
                    <line x1="794.531867" y1="98.9562016" x2="791.285265" y2="65.0176842"></line>
                    <line x1="569.040653" y1="902.561271" x2="496.434844" y2="913.775737"></line>
                    <line x1="565.203761" y1="857.408287" x2="495.549407" y2="866.852048"></line>
                    <line x1="560.776577" y1="814.91136" x2="493.778534" y2="821.994181"></line>
                    <line x1="556.349394" y1="774.480257" x2="492.00766" y2="779.202138"></line>
                    <line x1="551.92221" y1="735.229624" x2="490.531933" y2="737.885682"></line>
                    <line x1="548.380464" y1="697.454578" x2="489.646496" y2="697.454578"></line>
                    <line x1="545.724154" y1="660.269768" x2="489.35135" y2="657.908828"></line>
                    <line x1="544.543571" y1="623.675193" x2="490.531933" y2="618.658194"></line>
                    <line x1="544.543571" y1="587.375735" x2="492.893097" y2="579.997796"></line>
                    <line x1="546.314445" y1="551.371395" x2="497.025135" y2="541.632516"></line>
                    <line x1="552.217356" y1="514.186584" x2="505.289211" y2="502.381883"></line>
                    <line x1="560.481432" y1="477.592009" x2="515.914451" y2="463.131249"></line>
                    <line x1="570.221236" y1="441.292551" x2="527.720274" y2="425.061086"></line>
                    <line x1="581.141622" y1="406.468681" x2="540.706679" y2="387.876276"></line>
                    <line x1="592.062008" y1="373.120399" x2="554.283375" y2="352.462171"></line>
                    <line x1="602.982394" y1="341.542822" x2="567.564926" y2="318.818771"></line>
                    <line x1="613.90278" y1="311.440832" x2="580.846476" y2="286.946076"></line>
                    <line x1="626.298893" y1="282.519313" x2="595.8989" y2="256.253852"></line>
                    <line x1="641.646463" y1="254.483147" x2="613.312488" y2="226.44698"></line>
                    <line x1="657.289178" y1="228.217685" x2="631.316368" y2="198.705931"></line>
                    <line x1="672.636747" y1="204.018047" x2="649.025102" y2="173.325822"></line>
                    <line x1="687.984317" y1="181.884231" x2="666.43869" y2="150.011536"></line>
                    <line x1="702.741595" y1="161.816238" x2="683.261988" y2="128.763073"></line>
                    <line x1="716.908582" y1="143.518951" x2="699.79014" y2="109.875551"></line>
                    <line x1="730.485279" y1="127.582603" x2="715.137709" y2="93.0538507"></line>
                    <line x1="742.881392" y1="113.416961" x2="729.304696" y2="78.2979736"></line>
                    <line x1="754.096924" y1="101.317142" x2="742.586247" y2="65.9030368"></line>
                    <line x1="764.131873" y1="90.9880279" x2="751.735759" y2="45.2448088"></line>
                    <line x1="772.98624" y1="82.1345016" x2="765.01731" y2="46.1301614"></line>
                    <line x1="780.364879" y1="75.0516806" x2="775.64255" y2="46.7203965"></line>
                    <line x1="786.562936" y1="69.4444473" x2="783.906626" y2="47.3106316"></line>
                    <line x1="791.285265" y1="65.0176842" x2="790.104683" y2="47.9008667"></line>
                    <line x1="496.434844" y1="913.775737" x2="424.419325" y2="923.809734"></line>
                    <line x1="495.549407" y1="866.852048" x2="425.895053" y2="874.525104"></line>
                    <line x1="493.778534" y1="821.994181" x2="427.075636" y2="827.601415"></line>
                    <line x1="492.00766" y1="779.202138" x2="427.961072" y2="782.153313"></line>
                    <line x1="490.531933" y1="737.885682" x2="429.141655" y2="738.180799"></line>
                    <line x1="489.646496" y1="697.454578" x2="430.617382" y2="695.388756"></line>
                    <line x1="489.35135" y1="657.908828" x2="432.978547" y2="653.186947"></line>
                    <line x1="490.531933" y1="618.658194" x2="436.520294" y2="611.575373"></line>
                    <line x1="492.893097" y1="579.997796" x2="441.537768" y2="570.554035"></line>
                    <line x1="497.025135" y1="541.632516" x2="448.030971" y2="529.532696"></line>
                    <line x1="505.289211" y1="502.381883" x2="458.361066" y2="487.921123"></line>
                    <line x1="515.914451" y1="463.131249" x2="471.052325" y2="446.309549"></line>
                    <line x1="527.720274" y1="425.061086" x2="484.924167" y2="405.878446"></line>
                    <line x1="540.706679" y1="387.876276" x2="500.271736" y2="366.627813"></line>
                    <line x1="554.283375" y1="352.462171" x2="516.209597" y2="328.852767"></line>
                    <line x1="567.564926" y1="318.818771" x2="532.147457" y2="293.143545"></line>
                    <line x1="580.846476" y1="286.946076" x2="548.085318" y2="259.205027"></line>
                    <line x1="595.8989" y1="256.253852" x2="565.794052" y2="226.742098"></line>
                    <line x1="613.312488" y1="226.44698" x2="585.863951" y2="195.459638"></line>
                    <line x1="631.316368" y1="198.705931" x2="605.933849" y2="166.243001"></line>
                    <line x1="649.025102" y1="173.325822" x2="626.298893" y2="139.387305"></line>
                    <line x1="666.43869" y1="150.011536" x2="646.073646" y2="114.892549"></line>
                    <line x1="683.261988" y1="128.763073" x2="665.258108" y2="92.7587332"></line>
                    <line x1="699.79014" y1="109.875551" x2="683.852279" y2="72.9858578"></line>
                    <line x1="715.137709" y1="93.0538507" x2="695.953247" y2="41.4082807"></line>
                    <line x1="729.304696" y1="78.2979736" x2="717.498874" y2="40.5229281"></line>
                    <line x1="742.586247" y1="65.9030368" x2="737.273627" y2="44.6545737"></line>
                    <line x1="425.895053" y1="874.525104" x2="356.830991" y2="880.132337"></line>
                    <line x1="427.075636" y1="827.601415" x2="360.667883" y2="830.55259"></line>
                    <line x1="427.961072" y1="782.153313" x2="364.20963" y2="782.448431"></line>
                    <line x1="429.141655" y1="738.180799" x2="368.046522" y2="735.819859"></line>
                    <line x1="430.617382" y1="695.388756" x2="372.17856" y2="690.07664"></line>
                    <line x1="432.978547" y1="653.186947" x2="377.196035" y2="645.218773"></line>
                    <line x1="436.520294" y1="611.575373" x2="383.394092" y2="600.951142"></line>
                    <line x1="441.537768" y1="570.554035" x2="391.067876" y2="556.978628"></line>
                    <line x1="448.030971" y1="529.532696" x2="399.922243" y2="513.596349"></line>
                    <line x1="458.361066" y1="487.921123" x2="412.908648" y2="469.0336"></line>
                    <line x1="471.052325" y1="446.309549" x2="427.665927" y2="425.356204"></line>
                    <line x1="484.924167" y1="405.878446" x2="444.194078" y2="382.56416"></line>
                    <line x1="500.271736" y1="366.627813" x2="461.902812" y2="340.952587"></line>
                    <line x1="516.209597" y1="328.852767" x2="480.496983" y2="300.816601"></line>
                    <line x1="532.147457" y1="293.143545" x2="499.3863" y2="263.041555"></line>
                    <line x1="548.085318" y1="259.205027" x2="518.275616" y2="227.037215"></line>
                    <line x1="565.794052" y1="226.742098" x2="538.935806" y2="192.80358"></line>
                    <line x1="585.863951" y1="195.459638" x2="561.662014" y2="160.045533"></line>
                    <line x1="605.933849" y1="166.243001" x2="584.388223" y2="129.353308"></line>
                    <line x1="626.298893" y1="139.387305" x2="607.114432" y2="101.317142"></line>
                    <line x1="646.073646" y1="114.892549" x2="629.545495" y2="75.9370332"></line>
                    <line x1="665.258108" y1="92.7587332" x2="646.368792" y2="40.5229281"></line>
                    <line x1="683.852279" y1="72.9858578" x2="674.112475" y2="40.5229281"></line>
                    <line x1="356.830991" y1="880.132337" x2="287.176637" y2="882.788395"></line>
                    <line x1="360.667883" y1="830.55259" x2="293.964985" y2="829.962355"></line>
                    <line x1="364.20963" y1="782.448431" x2="300.458187" y2="778.90702"></line>
                    <line x1="368.046522" y1="735.819859" x2="307.246535" y2="729.032155"></line>
                    <line x1="372.17856" y1="690.07664" x2="314.625175" y2="680.337761"></line>
                    <line x1="377.196035" y1="645.218773" x2="322.88925" y2="632.233601"></line>
                    <line x1="383.394092" y1="600.951142" x2="332.038763" y2="584.719677"></line>
                    <line x1="391.067876" y1="556.978628" x2="342.368858" y2="538.091105"></line>
                    <line x1="399.922243" y1="513.596349" x2="354.469826" y2="491.462533"></line>
                    <line x1="412.908648" y1="469.0336" x2="370.112541" y2="444.538844"></line>
                    <line x1="427.665927" y1="425.356204" x2="387.52613" y2="398.20539"></line>
                    <line x1="444.194078" y1="382.56416" x2="406.710591" y2="353.052406"></line>
                    <line x1="461.902812" y1="340.952587" x2="427.370781" y2="309.079892"></line>
                    <line x1="480.496983" y1="300.816601" x2="449.211553" y2="266.878083"></line>
                    <line x1="499.3863" y1="263.041555" x2="471.052325" y2="227.037215"></line>
                    <line x1="518.275616" y1="227.037215" x2="493.483388" y2="188.967052"></line>
                    <line x1="538.935806" y1="192.80358" x2="517.390179" y2="152.962712"></line>
                    <line x1="561.662014" y1="160.045533" x2="542.772698" y2="118.729077"></line>
                    <line x1="584.388223" y1="129.353308" x2="568.450362" y2="87.1514999"></line>
                    <line x1="607.114432" y1="101.317142" x2="587.044533" y2="34.6205773"></line>
                    <line x1="629.545495" y1="75.9370332" x2="620.691128" y2="38.7522229"></line>
                    <line x1="287.176637" y1="882.788395" x2="215.456264" y2="881.607925"></line>
                    <line x1="293.964985" y1="829.962355" x2="225.786359" y2="825.240474"></line>
                    <line x1="300.458187" y1="778.90702" x2="235.821308" y2="770.348611"></line>
                    <line x1="307.246535" y1="729.032155" x2="246.446549" y2="716.932336"></line>
                    <line x1="314.625175" y1="680.337761" x2="257.366935" y2="664.401414"></line>
                    <line x1="322.88925" y1="632.233601" x2="269.172757" y2="612.755844"></line>
                    <line x1="332.038763" y1="584.719677" x2="281.864017" y2="561.995626"></line>
                    <line x1="342.368858" y1="538.091105" x2="296.326149" y2="511.825644"></line>
                    <line x1="354.469826" y1="491.462533" x2="311.968864" y2="462.245897"></line>
                    <line x1="370.112541" y1="444.538844" x2="330.858181" y2="412.371032"></line>
                    <line x1="387.52613" y1="398.20539" x2="351.813516" y2="363.38152"></line>
                    <line x1="406.710591" y1="353.052406" x2="374.244579" y2="315.572478"></line>
                    <line x1="427.370781" y1="309.079892" x2="398.446516" y2="269.239024"></line>
                    <line x1="449.211553" y1="266.878083" x2="423.829034" y2="224.676275"></line>
                    <line x1="471.052325" y1="227.037215" x2="449.211553" y2="182.769584"></line>
                    <line x1="493.483388" y1="188.967052" x2="475.479509" y2="143.223833"></line>
                    <line x1="517.390179" y1="152.962712" x2="502.928046" y2="105.743905"></line>
                    <line x1="542.772698" y1="118.729077" x2="531.852312" y2="70.3297999"></line>
                    <line x1="568.450362" y1="87.1514999" x2="560.186286" y2="34.6205773"></line>
                    <line x1="215.456264" y1="881.607925" x2="139.308708" y2="876.295809"></line>
                    <line x1="225.786359" y1="825.240474" x2="153.77084" y2="815.206478"></line>
                    <line x1="235.821308" y1="770.348611" x2="168.528119" y2="755.887852"></line>
                    <line x1="246.446549" y1="716.932336" x2="183.580543" y2="697.749696"></line>
                    <line x1="257.366935" y1="664.401414" x2="199.223258" y2="640.79201"></line>
                    <line x1="269.172757" y1="612.755844" x2="215.75141" y2="585.014795"></line>
                    <line x1="281.864017" y1="561.995626" x2="233.460144" y2="530.122932"></line>
                    <line x1="296.326149" y1="511.825644" x2="252.054314" y2="476.116421"></line>
                    <line x1="311.968864" y1="462.245897" x2="272.714504" y2="422.995264"></line>
                    <line x1="330.858181" y1="412.371032" x2="295.735858" y2="369.874106"></line>
                    <line x1="351.813516" y1="363.38152" x2="321.118377" y2="317.933418"></line>
                    <line x1="374.244579" y1="315.572478" x2="347.976624" y2="267.468319"></line>
                    <line x1="398.446516" y1="269.239024" x2="376.605744" y2="218.773924"></line>
                    <line x1="423.829034" y1="224.676275" x2="406.1203" y2="172.44047"></line>
                    <line x1="449.211553" y1="182.769584" x2="435.930003" y2="128.763073"></line>
                    <line x1="475.479509" y1="143.223833" x2="466.329996" y2="87.741735"></line>
                    <line x1="502.928046" y1="105.743905" x2="499.681445" y2="31.9645194"></line>
                    <line x1="531.852312" y1="70.3297999" x2="530.966875" y2="30.1938141"></line>
                    <line x1="139.308708" y1="876.295809" x2="0.885436701" y2="858.588757"></line>
                    <line x1="153.77084" y1="815.206478" x2="75.5572652" y2="798.679896"></line>
                    <line x1="168.528119" y1="755.887852" x2="96.2174549" y2="733.458919"></line>
                    <line x1="183.580543" y1="697.749696" x2="116.877645" y2="670.008647"></line>
                    <line x1="199.223258" y1="640.79201" x2="138.718417" y2="607.738845"></line>
                    <line x1="215.75141" y1="585.014795" x2="161.14948" y2="546.944632"></line>
                    <line x1="233.460144" y1="530.122932" x2="184.761125" y2="487.330888"></line>
                    <line x1="252.054314" y1="476.116421" x2="209.553353" y2="428.602497"></line>
                    <line x1="272.714504" y1="422.995264" x2="236.116454" y2="371.644811"></line>
                    <line x1="295.735858" y1="369.874106" x2="264.745574" y2="314.982243"></line>
                    <line x1="321.118377" y1="317.933418" x2="295.735858" y2="259.795262"></line>
                    <line x1="347.976624" y1="267.468319" x2="328.201871" y2="206.674105"></line>
                    <line x1="376.605744" y1="218.773924" x2="361.848465" y2="155.61877"></line>
                    <line x1="406.1203" y1="172.44047" x2="396.970788" y2="107.51461"></line>
                    <line x1="435.930003" y1="128.763073" x2="429.731946" y2="27.2426387"></line>
                    <line x1="466.329996" y1="87.741735" x2="467.510578" y2="20.1598177"></line>
                    <line x1="75.5572652" y1="798.679896" x2="5.90291134" y2="779.792373"></line>
                    <line x1="96.2174549" y1="733.458919" x2="11.8058227" y2="700.995989"></line>
                    <line x1="116.877645" y1="670.008647" x2="43.0912528" y2="631.643366"></line>
                    <line x1="138.718417" y1="607.738845" x2="72.3106639" y2="562.880979"></line>
                    <line x1="161.14948" y1="546.944632" x2="102.710657" y2="495.889297"></line>
                    <line x1="184.761125" y1="487.330888" x2="134.291233" y2="430.373202"></line>
                    <line x1="209.553353" y1="428.602497" x2="166.757245" y2="366.627813"></line>
                    <line x1="236.116454" y1="371.644811" x2="200.994131" y2="304.948246"></line>
                    <line x1="264.745574" y1="314.982243" x2="237.00189" y2="244.44915"></line>
                    <line x1="295.735858" y1="259.795262" x2="275.075669" y2="186.015877"></line>
                    <line x1="328.201871" y1="206.674105" x2="314.330029" y2="130.238661"></line>
                    <line x1="361.848465" y1="155.61877" x2="350.337788" y2="21.6354054"></line>
                    <line x1="396.970788" y1="107.51461" x2="396.380497" y2="23.4061106"></line>
                    <line x1="43.0912528" y1="631.643366" x2="17.4135885" y2="616.297254"></line>
                    <line x1="72.3106639" y1="562.880979" x2="23.6116454" y2="524.515698"></line>
                    <line x1="102.710657" y1="495.889297" x2="30.3999934" y2="421.519676"></line>
                    <line x1="134.291233" y1="430.373202" x2="38.3689237" y2="301.997071"></line>
                    <line x1="166.757245" y1="366.627813" x2="121.599974" y2="286.355841"></line>
                    <line x1="200.994131" y1="304.948246" x2="165.576663" y2="219.364159"></line>
                    <line x1="237.00189" y1="244.44915" x2="211.324226" y2="154.4383"></line>
                    <line x1="275.075669" y1="186.015877" x2="244.675675" y2="14.5525843"></line>
                    <line x1="314.330029" y1="130.238661" x2="305.475662" y2="18.6842299"></line>
                    <line x1="121.599974" y1="286.355841" x2="49.2893097" y2="141.15801"></line>
                    <line x1="165.576663" y1="219.364159" x2="88.8388157" y2="0.682059838"></line>
                    <line x1="211.324226" y1="154.4383" x2="177.972777" y2="8.65023349"></line>
                </g>
            </g>
        </g>
    </g>
</svg>