<svg width="10px" height="14px" viewBox="0 0 10 14" version="1.1" xmlns="http://www.w3.org/2000/svg" xmlns:xlink="http://www.w3.org/1999/xlink">
    <title>pin</title>
    <g id="Symbols" stroke="none" stroke-width="1" fill="none" fill-rule="evenodd">
        <g id="switch/list" transform="translate(-35.000000, -7.000000)" fill="#6EB604" fill-rule="nonzero">
            <g id="pin" transform="translate(35.000000, 7.000000)">
                <path d="M5,0 C2.24298511,0 0,2.27451058 0,5.07024837 C0,8.53984634 4.47451018,13.633419 4.66501642,13.8485598 C4.84395476,14.0506577 5.15636881,14.0503023 5.33498358,13.8485598 C5.52548982,13.633419 10,8.53984634 10,5.07024837 C10,2.27451058 7.75698793,0 5,0 Z M5,7.62123194 C3.6128773,7.62123194 2.48440087,6.47686727 2.48440087,5.07024837 C2.48440087,3.66362946 3.61290427,2.51929213 5,2.51929213 C6.38709573,2.51929213 7.51557217,3.66365681 7.51557217,5.07027571 C7.51557217,6.47689461 6.38709573,7.62123194 5,7.62123194 Z" id="Shape"></path>
            </g>
        </g>
    </g>
</svg>
